<?xml version="1.0" standalone="no"?>
<!DOCTYPE svg PUBLIC "-//W3C//DTD SVG 20010904//EN"
 "http://www.w3.org/TR/2001/REC-SVG-20010904/DTD/svg10.dtd">
<svg version="1.0" xmlns="http://www.w3.org/2000/svg"
 width="592.000000pt" height="592.000000pt" viewBox="0 0 592.000000 592.000000"
 preserveAspectRatio="xMidYMid meet">

<g transform="translate(0.000000,592.000000) scale(0.100000,-0.100000)"
fill="#000000" stroke="none">
<path d="M2987 5683 c-8 -8 -25 -9 -192 -18 -176 -8 -383 -38 -445 -62 -8 -3
-21 -5 -27 -4 -7 1 -13 -3 -13 -8 0 -6 -6 -8 -14 -5 -8 3 -54 -7 -103 -21 -80
-24 -91 -30 -101 -58 -6 -17 -10 -32 -8 -34 1 -2 29 6 62 17 89 31 203 58 364
86 232 41 682 45 838 7 19 -4 22 -1 22 25 0 42 -21 48 -225 58 -71 4 -135 11
-141 15 -6 5 -14 6 -17 2z m-698 -108 c-3 -2 -33 -13 -68 -24 -71 -22 -74 -15
-3 11 46 16 80 23 71 13z"/>
<path d="M3390 5610 c0 -23 5 -31 23 -34 110 -24 257 -61 327 -82 215 -66 458
-179 643 -302 l77 -51 0 33 c0 38 -8 46 -105 106 -38 24 -71 47 -73 52 -2 4
-8 8 -14 8 -5 0 -58 23 -116 51 -145 69 -176 83 -257 113 -125 47 -216 72
-482 131 -20 5 -23 1 -23 -25z"/>
<path d="M2709 5581 c-26 -3 -54 -13 -63 -20 -11 -9 -30 -11 -58 -7 -24 3 -79
0 -123 -8 -77 -14 -144 -34 -117 -35 21 -1 13 -15 -15 -29 -22 -10 -29 -10
-35 2 -6 11 -18 11 -65 1 -32 -6 -57 -16 -56 -21 1 -5 4 -23 8 -39 6 -29 6
-29 -9 -11 -9 11 -16 26 -16 33 0 16 -17 17 -58 2 -33 -11 -41 -30 -43 -99 -1
-36 -2 -40 -8 -20 -4 14 -4 42 0 63 4 26 3 37 -6 37 -19 0 -63 -38 -70 -60 -7
-22 -41 -27 -47 -8 -3 8 -18 6 -51 -7 -53 -20 -69 -35 -38 -35 12 0 21 -5 21
-11 0 -5 -5 -7 -10 -4 -6 4 -18 1 -26 -6 -14 -12 -14 -14 3 -21 13 -6 11 -7
-9 -5 -19 3 -28 0 -28 -9 0 -8 -6 -11 -15 -7 -10 3 -15 1 -13 -8 5 -24 -32
-22 -41 3 -8 22 -8 22 -25 -9 -9 -18 -16 -40 -16 -50 0 -9 -16 -33 -35 -53
-30 -31 -33 -38 -23 -53 7 -9 28 -18 46 -19 41 -3 42 -18 2 -18 -35 0 -36 -3
-43 -82 l-5 -57 26 5 c15 2 38 6 52 8 16 2 25 9 25 21 0 10 6 20 13 23 17 5
15 29 -3 36 -17 6 -20 26 -5 26 6 0 17 -15 25 -32 8 -18 14 -27 15 -19 0 8 3
11 7 8 3 -4 12 -2 20 4 7 6 13 8 13 4 0 -5 9 0 20 10 20 18 20 17 20 -8 0 -33
9 -34 44 -6 20 16 30 19 39 10 8 -8 7 -11 -4 -11 -8 0 -30 -16 -48 -34 -27
-27 -34 -44 -35 -76 -1 -22 -5 -41 -11 -41 -5 -1 -32 -10 -60 -19 -27 -9 -57
-14 -65 -11 -27 11 -60 36 -60 45 0 4 6 4 13 -2 6 -6 14 -12 17 -13 9 -5 49
34 44 43 -7 12 34 10 57 -3 11 -5 17 -14 14 -19 -3 -5 0 -12 6 -16 14 -8 29
14 29 43 0 16 -5 20 -20 16 -12 -3 -20 0 -20 6 0 7 -4 9 -10 6 -5 -3 -10 0
-10 7 -1 10 -4 9 -13 -2 -8 -10 -29 -15 -58 -15 -32 0 -53 -6 -68 -19 -19 -18
-20 -43 0 -31 5 4 9 1 9 -4 0 -6 -4 -11 -10 -11 -5 0 -10 -13 -10 -29 0 -17
-4 -33 -10 -36 -5 -3 -10 1 -10 10 0 25 -16 9 -50 -51 -37 -63 -59 -81 -115
-90 -22 -3 -44 -8 -49 -12 -5 -3 -6 0 -2 6 3 6 19 13 35 17 16 3 39 15 51 25
13 11 28 17 34 13 6 -3 8 -3 4 1 -4 5 15 37 43 72 27 35 49 68 49 74 0 22 -21
8 -46 -30 -28 -43 -38 -42 -49 1 -5 21 -2 27 13 31 28 8 34 56 11 90 -13 18
-16 29 -8 33 5 4 8 14 4 22 -3 9 2 24 11 34 11 12 13 19 6 20 -7 1 -15 2 -19
3 -5 1 -23 6 -41 10 -18 4 -30 12 -26 17 3 5 9 7 14 4 5 -3 11 -1 15 5 3 5 17
10 31 10 13 0 24 5 24 11 0 7 12 8 33 4 27 -5 29 -4 13 6 -30 19 -115 4 -161
-29 l-40 -28 0 -87 c0 -75 2 -87 17 -87 22 0 48 -10 48 -19 0 -4 -13 -6 -30
-3 -38 5 -80 -5 -80 -20 0 -9 3 -9 12 0 20 20 35 13 42 -20 7 -37 2 -45 -19
-28 -13 11 -15 9 -15 -13 0 -30 23 -51 50 -44 11 3 18 1 14 -4 -9 -15 -50 -10
-66 9 -8 9 -18 39 -22 67 -5 39 -14 58 -43 87 -20 21 -42 38 -49 38 -20 0
-230 -226 -320 -346 -70 -92 -84 -116 -79 -137 4 -14 2 -28 -4 -31 -6 -4 -11
0 -11 9 0 9 -5 13 -10 10 -17 -11 -149 -240 -194 -337 -64 -138 -64 -126 -1
-153 30 -14 55 -29 55 -34 0 -6 -25 1 -56 15 -31 14 -58 24 -59 22 -19 -19
-72 -172 -67 -191 1 -4 -4 -14 -11 -21 -21 -21 -52 -172 -39 -188 7 -9 6 -29
-5 -68 -26 -95 -32 -124 -28 -129 3 -2 -2 -9 -10 -15 -23 -18 -35 -129 -35
-341 0 -249 32 -507 81 -665 13 -42 57 -91 79 -89 32 3 35 -3 37 -61 2 -42 -1
-60 -10 -60 -8 0 -8 -3 2 -9 7 -5 10 -14 7 -20 -4 -6 -3 -11 3 -11 7 0 7 -8 1
-26 -6 -14 -8 -30 -5 -35 3 -5 8 -23 10 -41 7 -55 58 -158 75 -152 12 4 12 3
3 -7 -15 -15 2 -53 19 -43 7 4 8 3 4 -5 -8 -12 32 -96 90 -186 112 -177 267
-368 413 -509 l81 -78 33 25 c20 15 34 36 37 56 l5 32 18 -22 c15 -16 27 -20
58 -17 21 2 39 0 39 -4 0 -11 -46 -21 -78 -16 -21 3 -34 -4 -60 -33 l-32 -37
62 -54 c35 -30 78 -64 95 -77 30 -20 35 -21 54 -7 21 14 26 11 109 -74 96 -98
116 -109 199 -114 31 -2 56 -7 56 -12 2 -31 21 -57 55 -74 47 -24 50 -24 50
-6 0 12 4 12 30 0 17 -9 30 -21 30 -29 0 -13 49 -37 125 -60 l41 -13 -4 33
c-3 24 1 34 13 39 15 5 16 4 6 -8 -8 -10 -9 -16 -1 -21 5 -3 10 -15 10 -26 0
-26 44 -44 180 -75 211 -47 415 -63 719 -56 61 2 72 5 67 17 -5 13 -2 14 16 4
24 -13 156 -5 172 11 4 4 16 6 25 3 12 -3 11 0 -4 13 l-20 17 20 -9 c36 -16
119 -7 241 26 65 17 123 35 128 40 5 5 -2 31 -17 62 -14 29 -24 54 -21 57 8 8
20 -12 38 -61 10 -27 24 -48 32 -48 23 0 191 69 297 121 89 45 97 52 98 79 2
44 2 45 22 65 12 12 17 28 15 47 -3 15 -1 28 4 28 5 0 8 -18 6 -39 -4 -85 67
-100 87 -18 6 24 5 26 -11 21 -18 -6 -18 -6 0 8 12 9 16 20 11 27 -6 10 -3 11
14 2 18 -10 21 -9 21 7 0 31 -21 41 -72 35 -32 -4 -48 -10 -48 -20 0 -8 -5
-11 -10 -8 -6 4 -8 10 -5 15 3 4 -1 10 -7 13 -8 2 -1 10 15 17 15 7 27 17 27
22 0 14 28 9 33 -6 8 -20 46 -16 53 6 9 31 31 19 25 -15 -2 -13 29 -20 42 -9
8 7 16 6 24 -3 10 -10 7 -14 -12 -19 l-25 -6 20 -20 c26 -26 59 -11 61 25 2
37 3 43 12 51 4 4 7 -5 7 -19 0 -31 3 -32 35 -11 15 10 22 22 18 32 -4 13 -3
14 5 3 8 -11 16 -8 46 15 l36 29 -35 35 c-30 29 -37 32 -45 20 -8 -12 -10 -9
-10 13 0 24 -4 27 -34 27 -43 0 -76 38 -76 86 0 43 -13 43 -39 0 -42 -67 -136
-134 -158 -112 -4 3 2 6 13 6 10 0 32 9 47 19 33 22 118 131 111 143 -10 17
-25 7 -50 -34 -30 -48 -83 -108 -97 -108 -4 0 7 19 26 43 68 84 91 125 77 142
-6 8 -20 17 -31 20 -10 4 -19 11 -19 17 0 6 7 5 18 -3 15 -13 16 -12 3 3 -15
20 -37 12 -77 -24 l-22 -20 -20 55 c-12 30 -28 83 -37 118 -9 35 -28 82 -42
104 -75 115 -209 283 -312 390 -66 67 -94 101 -66 78 118 -97 250 -253 429
-511 32 -45 59 -82 62 -82 8 0 -163 264 -229 353 -38 52 -50 72 -27 47 22 -25
101 -135 175 -245 141 -209 214 -300 235 -293 9 3 8 8 -4 21 -10 9 -15 21 -11
27 8 13 -16 49 -30 43 -7 -2 -42 50 -85 129 -104 193 -188 316 -282 415 l-83
87 82 -66 c45 -36 90 -69 100 -72 22 -7 67 -80 202 -321 55 -99 104 -185 110
-191 5 -7 7 -15 4 -18 -4 -3 -1 -6 6 -6 7 0 9 -4 6 -10 -3 -5 -1 -10 5 -10 6
0 8 -4 5 -10 -3 -5 -1 -10 5 -10 6 0 9 -3 7 -7 -5 -9 15 -50 50 -103 21 -32
22 -50 3 -50 -5 0 -7 6 -4 13 3 8 -2 20 -10 27 -9 7 -13 16 -10 21 3 5 0 9 -5
9 -6 0 -11 -15 -11 -34 0 -26 5 -36 20 -41 11 -3 24 -4 30 0 5 3 34 -19 64
-49 30 -31 58 -56 63 -56 11 0 53 81 53 103 0 19 -57 164 -73 185 -16 21 -57
113 -48 108 4 -3 43 -75 85 -161 52 -106 81 -153 89 -149 7 4 9 4 5 -1 -9 -10
91 -95 113 -95 26 0 29 11 17 59 -8 32 -20 49 -52 71 -23 15 -49 36 -57 46 -8
10 7 2 32 -17 25 -19 60 -41 78 -49 30 -12 34 -12 43 4 9 15 12 16 26 3 10 -8
29 -17 44 -21 22 -5 28 -2 34 16 4 13 7 34 6 48 -2 25 -2 25 8 3 16 -39 22
-25 18 39 -5 64 -48 170 -114 278 -15 25 -22 41 -16 35 5 -5 28 -38 49 -73 48
-75 62 -73 21 3 -16 30 -27 59 -23 65 3 5 1 10 -6 10 -7 0 -9 3 -6 7 4 3 1 13
-6 22 -11 14 -10 14 6 2 14 -11 17 -11 17 1 0 8 -44 61 -97 118 -54 57 -91
100 -83 95 8 -4 1 7 -16 26 -18 19 -42 54 -53 79 l-22 45 21 -25 22 -25 -18
32 c-10 18 -21 30 -25 27 -4 -2 -5 6 -2 18 4 19 3 20 -6 8 -13 -18 -15 -1 -2
19 7 11 11 10 20 -5 25 -44 8 3 -34 93 -34 72 -40 91 -24 77 20 -18 20 -18 -1
36 -12 30 -23 64 -24 75 -2 11 -15 45 -30 75 -15 30 -20 46 -11 36 8 -11 15
-24 15 -30 0 -5 6 -4 12 2 8 8 9 15 3 20 -6 4 -12 16 -13 27 -8 42 -73 190
-117 266 -26 43 -74 113 -107 156 -33 43 -65 87 -70 97 -16 29 98 -72 139
-124 l35 -45 -6 39 c-16 86 -87 209 -187 323 -28 32 -79 94 -112 138 -50 65
-56 75 -30 57 53 -37 50 -25 -8 36 -66 68 -160 188 -163 208 -1 8 -20 33 -42
56 l-39 42 47 -42 c26 -23 51 -42 55 -42 8 0 -21 33 -122 139 -57 60 -68 75
-38 52 24 -18 45 -37 48 -42 4 -5 16 -14 28 -20 24 -11 -115 128 -198 200 -49
42 -49 43 -5 10 25 -18 68 -51 95 -74 47 -38 48 -38 23 -8 -14 18 -48 51 -75
74 -82 70 -82 72 2 21 79 -48 -84 105 -180 170 -113 76 -117 80 -30 35 l70
-36 -35 30 c-52 44 -199 114 -330 155 -63 21 -110 39 -104 41 6 2 47 -8 90
-21 65 -21 75 -22 56 -7 -42 31 -168 92 -290 138 -106 41 -120 56 -16 19 37
-14 69 -24 71 -22 1 1 -22 18 -52 37 -31 19 -72 45 -93 58 -20 13 -57 35 -82
48 -25 14 -36 22 -25 19 36 -11 -26 32 -73 50 -23 9 -40 19 -38 21 9 9 98 -37
177 -92 45 -31 89 -59 98 -63 32 -11 101 -63 101 -76 0 -7 26 -24 59 -38 l58
-25 99 118 c55 65 112 144 129 175 125 239 -166 446 -357 254 l-48 -47 0 35
c0 20 18 73 41 124 46 99 46 128 1 152 l-27 15 38 1 c49 0 87 36 87 82 l0 33
-20 -33 c-36 -59 -103 -64 -130 -10 l-11 23 18 -21 c24 -28 48 -35 78 -24 47
18 39 88 -17 140 l-22 20 25 0 c14 0 29 -3 33 -7 4 -5 34 -8 66 -8 45 0 64 -5
77 -19 17 -18 17 -19 0 -12 -45 15 -69 17 -96 8 -20 -7 -33 -7 -42 1 -7 7 -6
3 4 -9 9 -11 17 -27 17 -35 0 -11 2 -12 9 -1 6 10 11 5 20 -19 15 -44 14 -66
-4 -73 -19 -7 -19 -30 0 -46 12 -10 20 -9 40 4 14 9 25 23 25 31 0 8 4 15 9
15 14 0 20 -25 10 -41 -21 -34 9 -41 41 -9 11 11 20 16 20 10 0 -6 3 -9 8 -8
8 2 41 -5 159 -33 123 -29 244 -74 388 -144 181 -87 296 -165 570 -384 11 -9
17 -12 14 -8 -10 12 6 62 19 63 7 1 14 2 17 3 18 4 -120 203 -163 235 -36 27
-93 32 -109 10 -7 -10 -13 -13 -13 -7 0 24 31 43 58 37 28 -7 102 -52 102 -63
0 -3 10 -17 23 -31 13 -14 37 -46 55 -72 18 -26 41 -53 51 -61 11 -7 23 -25
26 -40 8 -32 25 -46 25 -21 0 13 5 11 25 -10 37 -40 91 -37 135 9 40 41 50 43
50 10 0 -18 -4 -23 -16 -18 -20 8 -36 -17 -22 -34 12 -15 31 -7 22 10 -3 7 1
4 10 -7 11 -14 23 -17 46 -13 31 7 38 -1 20 -19 -10 -10 -79 -5 -148 11 -16 4
-23 2 -20 -7 4 -11 82 -38 119 -41 9 -1 15 -7 12 -13 -2 -7 1 -15 8 -20 7 -4
10 -3 6 2 -3 6 -2 16 2 23 6 10 12 9 25 -4 15 -16 15 -19 1 -34 -8 -10 -15
-28 -15 -40 0 -12 -11 -33 -26 -47 -29 -29 -30 -27 43 -112 38 -44 44 -62 23
-62 -4 0 -21 21 -38 48 -17 26 -55 76 -86 112 -57 67 -67 94 -18 47 31 -30 69
-35 78 -12 4 8 3 31 0 51 -6 28 -14 38 -39 49 -60 25 -70 23 -79 -14 -12 -42
-24 -30 -27 27 -1 7 -5 10 -11 7 -5 -3 -10 0 -10 7 0 9 -3 9 -10 -2 -5 -8 -10
-30 -10 -47 0 -18 -4 -33 -10 -33 -5 0 -10 8 -10 17 0 12 -3 14 -11 6 -15 -15
-3 -33 21 -33 21 0 36 -16 20 -22 -5 -1 8 -26 29 -54 238 -310 376 -615 435
-959 9 -49 16 -93 16 -96 0 -4 -11 -10 -25 -13 -15 -4 -27 -16 -31 -32 -8 -30
0 -41 19 -26 16 14 27 6 27 -19 0 -12 -9 -19 -27 -21 -17 -2 -33 -13 -42 -30
-14 -24 -14 -30 2 -64 19 -39 16 -54 -7 -35 -27 22 -101 16 -151 -14 -26 -15
-76 -37 -112 -49 l-66 -22 49 -18 c27 -9 56 -21 64 -26 61 -38 115 -60 147
-60 56 0 85 10 79 27 -3 8 -1 11 4 8 6 -4 22 3 36 14 25 20 94 30 94 13 0 -4
-15 -7 -32 -7 -29 0 -33 -3 -33 -28 -1 -16 6 -32 15 -37 13 -7 15 -3 14 28 -2
20 0 27 2 15 8 -32 32 -49 47 -34 9 10 9 12 -2 9 -7 -2 -15 2 -18 8 -2 6 9 11
27 12 20 0 30 -4 30 -14 0 -8 4 -13 10 -9 5 3 7 12 3 20 -3 8 -1 15 4 15 5 0
9 9 10 20 1 11 -2 20 -8 20 -5 0 -9 5 -9 10 0 6 7 10 16 10 8 0 13 -4 9 -9 -3
-5 -1 -12 3 -15 5 -3 8 -40 6 -83 -1 -43 0 -88 3 -100 8 -36 29 -27 28 11 0
19 -4 32 -9 28 -5 -3 -6 2 -3 12 4 10 2 26 -3 37 -15 27 3 59 29 52 30 -8 32
-29 5 -42 -36 -16 -21 -30 30 -29 24 0 49 -3 55 -6 16 -10 13 -36 -4 -36 -9 0
-12 -6 -9 -15 4 -8 1 -15 -5 -15 -6 0 -11 -9 -11 -20 0 -11 -7 -23 -15 -26 -8
-4 -12 -10 -9 -15 8 -14 20 -11 30 10 9 18 10 18 29 -2 11 -11 14 -16 6 -12
-11 6 -13 4 -8 -8 3 -9 1 -19 -4 -23 -6 -3 -9 -15 -6 -25 3 -11 2 -19 -2 -19
-4 0 -6 -14 -3 -30 4 -25 1 -29 -12 -24 -17 7 -19 53 -2 65 5 4 6 14 3 22 -4
10 -22 15 -62 16 -53 1 -57 -1 -52 -19 4 -17 1 -19 -20 -13 -21 5 -24 3 -18
-8 7 -11 6 -12 -6 -2 -17 13 -49 -5 -49 -28 0 -13 34 -50 42 -46 2 1 -6 -6
-17 -16 -20 -17 -20 -17 6 -8 25 9 27 7 33 -21 3 -17 6 -41 6 -54 0 -13 5 -24
12 -24 6 0 9 3 5 6 -3 4 1 20 10 37 15 30 15 30 27 8 7 -12 15 -18 19 -15 4 4
7 0 7 -9 0 -9 -4 -17 -10 -17 -5 0 -10 -5 -10 -11 0 -6 27 -9 76 -6 78 3 94
-2 69 -23 -10 -8 -16 -34 -17 -74 l-2 -61 -3 55 c-4 55 -23 90 -50 90 -7 0
-13 -4 -13 -9 0 -5 -21 -8 -47 -7 -45 1 -75 -12 -72 -31 4 -22 -2 -44 -10 -39
-5 3 -8 20 -7 37 1 16 -1 32 -5 35 -5 3 -8 -42 -7 -100 0 -57 -3 -109 -6 -114
-3 -6 0 -13 6 -15 10 -4 10 -6 1 -6 -9 -1 -13 -19 -13 -57 0 -30 -5 -65 -11
-77 -11 -21 -10 -21 15 2 46 43 29 0 -21 -53 -46 -48 -47 -48 -8 -18 48 39 53
39 57 5 2 -20 16 -35 58 -59 30 -18 58 -33 61 -34 4 0 30 59 59 131 47 120 51
133 39 161 -9 21 -9 32 -1 37 6 3 22 30 35 59 19 40 23 63 19 97 -3 34 0 50
13 65 18 20 12 66 -7 54 -6 -4 -9 -1 -6 7 3 8 14 13 26 11 27 -4 38 35 55 201
15 142 13 161 -14 126 -15 -20 -19 -21 -19 -6 0 9 5 17 10 17 6 0 10 5 10 11
0 5 -4 7 -10 4 -5 -3 -10 -1 -10 5 0 6 8 10 17 8 18 -3 22 26 8 74 -4 16 -4
36 0 45 18 43 20 241 4 328 -5 27 -12 66 -14 85 -20 146 -32 201 -67 325 -21
77 -43 144 -47 148 -5 5 -43 -7 -86 -27 -55 -26 -75 -31 -71 -20 3 9 6 18 6
20 0 2 7 4 16 4 12 0 109 36 122 46 8 6 -10 44 -19 39 -8 -6 -14 17 -10 39 3
15 -144 308 -203 405 -58 95 -147 221 -180 254 -17 16 -20 16 -41 3 -21 -14
-23 -14 -28 5 -4 16 -3 18 8 9 9 -8 14 -6 19 6 7 18 2 29 -27 61 -11 12 -24
20 -29 17 -5 -3 -7 -2 -6 3 2 4 0 9 -4 11 -18 5 -28 1 -28 -13 0 -8 -5 -15
-10 -15 -6 0 -8 12 -5 27 3 17 -2 35 -13 47 -16 20 -16 20 2 6 18 -14 19 -14
9 5 -6 11 -23 31 -36 44 l-26 23 -22 -20 c-16 -16 -20 -27 -15 -47 4 -16 2
-33 -5 -41 -8 -10 -8 -14 0 -14 7 0 10 -13 7 -36 -6 -45 -16 -57 -17 -21 -2
40 -3 45 -13 54 -5 4 -6 3 -3 -3 4 -7 0 -17 -8 -24 -8 -7 -15 -21 -15 -32 0
-33 -29 -77 -55 -84 -29 -7 -75 18 -75 41 0 12 5 10 20 -5 32 -32 68 -26 85
12 15 37 10 55 -11 37 -11 -9 -14 -7 -14 13 0 13 -5 29 -12 36 -9 9 -9 12 3
13 44 2 61 7 75 20 18 18 27 59 13 59 -6 0 4 12 21 27 l32 27 -48 43 c-97 87
-189 160 -210 165 -19 5 -21 0 -23 -44 -1 -29 3 -56 11 -65 17 -21 19 -46 5
-56 -7 -5 1 -7 21 -4 28 3 38 -2 63 -32 24 -29 27 -38 16 -46 -8 -5 -12 -16
-10 -22 3 -7 -1 -13 -7 -13 -9 0 -11 -12 -7 -40 6 -49 -8 -44 -33 14 -17 36
-19 38 -19 15 -1 -18 -8 -28 -21 -32 -13 -3 -20 -14 -20 -28 0 -18 -3 -20 -12
-11 -9 9 -5 19 17 42 16 16 25 31 19 31 -5 1 -13 2 -19 4 -5 1 -14 3 -20 4
-17 2 19 21 41 21 12 0 24 6 27 14 8 21 -22 29 -39 11 -22 -21 -41 -19 -55 7
-10 19 -8 25 16 44 l28 22 -22 11 c-12 7 -19 16 -16 21 3 4 -1 11 -7 13 -9 4
-10 6 -1 6 9 1 8 8 -2 28 -15 28 -13 39 4 29 6 -4 8 -13 4 -21 -3 -8 -1 -15 5
-15 6 0 9 30 8 73 -1 62 -3 72 -18 71 -10 -1 -16 2 -13 6 3 4 -4 10 -15 13
-11 3 -18 1 -15 -3 3 -5 -4 -14 -15 -20 -17 -9 -20 -8 -20 11 0 19 -4 21 -39
15 -30 -4 -40 -2 -45 9 -6 17 29 36 52 28 6 -3 12 -1 12 4 0 11 -193 123 -253
148 -36 15 -57 13 -57 -5 0 -4 11 -11 25 -14 14 -4 25 -11 25 -17 0 -6 -9 -9
-19 -6 -20 5 -31 -15 -31 -60 0 -12 -5 -25 -12 -29 -7 -4 -8 -3 -4 4 4 7 3 12
-3 12 -5 0 -13 15 -16 33 -4 17 -12 37 -17 44 -14 17 -1 32 22 26 16 -4 20 0
20 20 0 20 -8 28 -40 41 -22 9 -43 16 -45 16 -12 0 -3 -87 10 -104 19 -25 19
-40 0 -32 -19 7 -19 2 1 -35 9 -19 14 -45 10 -67 -4 -31 0 -41 24 -62 120
-108 170 -162 170 -187 0 -7 -30 17 -67 54 -78 78 -139 133 -147 133 -20 0 0
-48 32 -79 27 -26 30 -31 10 -18 -15 9 -30 17 -33 17 -3 0 -5 -20 -5 -45 0
-25 -4 -45 -9 -45 -9 0 -21 48 -21 85 0 16 -10 28 -34 39 -48 23 -96 31 -96
17 0 -6 -4 -11 -10 -11 -5 0 -10 6 -10 14 0 13 -27 31 -41 28 -4 -1 -9 8 -12
18 -3 13 0 20 8 20 21 0 28 19 14 36 -10 12 -9 13 4 9 8 -4 18 -18 22 -33 15
-61 41 -68 47 -12 2 29 0 40 -10 40 -7 0 -10 5 -7 10 5 8 -31 15 -57 11 -5 0
-7 4 -5 11 2 12 -2 14 -45 17 -22 2 -22 3 -3 12 16 7 12 8 -17 6 -20 -2 -34 1
-32 5 3 4 -66 8 -152 8 -87 0 -155 2 -152 6 3 3 96 6 205 7 144 1 204 6 215
15 18 15 48 6 48 -14 0 -15 25 -20 33 -6 2 4 2 1 1 -6 -2 -7 3 -15 11 -18 8
-4 12 -10 9 -15 -3 -5 0 -9 6 -9 6 0 9 -4 6 -9 -3 -5 6 -17 20 -26 15 -9 24
-12 20 -7 -3 6 -3 13 2 16 4 2 8 50 7 105 0 61 4 101 10 101 12 1 -32 25 -61
34 -20 6 -24 0 -43 -64 -12 -38 -26 -70 -31 -70 -17 0 -20 19 -4 34 16 16 34
68 34 98 0 19 -63 42 -226 82 -210 53 -333 68 -589 71 -132 2 -261 0 -286 -4z
m-569 -162 c0 -6 -6 -9 -12 -6 -7 2 -21 0 -30 -5 -11 -5 -18 -5 -18 1 0 9 20
17 48 20 6 0 12 -4 12 -10z m-12 -44 c-3 -3 -9 2 -12 12 -6 14 -5 15 5 6 7 -7
10 -15 7 -18z m101 4 c25 -9 29 -14 20 -25 -6 -8 -10 -14 -8 -15 2 0 19 -2 38
-5 19 -2 37 -7 40 -10 8 -9 -106 5 -132 16 -16 6 -17 9 -5 9 11 1 15 7 11 21
-6 23 -6 23 36 9z m541 7 c0 -3 -4 -8 -10 -11 -5 -3 -10 -1 -10 4 0 6 5 11 10
11 6 0 10 -2 10 -4z m-185 -42 c-15 -19 -25 -37 -24 -38 12 -11 104 -23 107
-15 8 21 65 40 115 38 29 -1 60 2 69 6 21 8 19 -11 -7 -59 -28 -52 -13 -90 37
-94 32 -3 39 1 52 25 8 15 15 21 15 13 1 -20 -10 -35 -36 -48 -25 -14 -49 -7
-80 21 -30 27 -29 58 4 99 25 31 25 31 3 11 -21 -18 -27 -19 -38 -7 -19 21
-65 17 -105 -10 -19 -13 -38 -21 -42 -18 -3 4 -48 12 -98 18 -55 7 -76 12 -52
13 36 1 44 6 65 41 14 22 29 40 34 40 4 0 -4 -16 -19 -36z m1132 4 c-3 -8 -6
-5 -6 6 -1 11 2 17 5 13 3 -3 4 -12 1 -19z m-1420 6 c-3 -3 -12 -4 -19 -1 -8
3 -5 6 6 6 11 1 17 -2 13 -5z m63 -14 c20 -6 21 -8 5 -8 -11 0 -29 3 -40 8
-25 11 1 11 35 0z m-457 -16 c11 -11 -3 -24 -18 -18 -8 4 -12 10 -9 15 6 11
18 12 27 3z m530 -1 c-7 -2 -19 -2 -25 0 -7 3 -2 5 12 5 14 0 19 -2 13 -5z
m-103 -27 c64 -14 49 -22 -51 -25 -84 -3 -116 5 -122 31 -5 19 -2 20 56 13 34
-3 87 -12 117 -19z m27 18 c-3 -3 -12 -4 -19 -1 -8 3 -5 6 6 6 11 1 17 -2 13
-5z m-342 -29 c11 -1 26 3 34 9 11 8 13 8 8 -1 -4 -7 3 -15 20 -21 21 -7 7 -9
-59 -8 -56 1 -88 5 -88 12 0 18 10 23 38 17 15 -3 36 -7 47 -8z m435 5 c-19
-13 -30 -13 -30 0 0 6 10 10 23 10 18 0 19 -2 7 -10z m-555 -8 c12 -8 13 -27
3 -38 -5 -4 -8 0 -8 9 0 10 -4 17 -10 17 -5 0 -10 5 -10 10 0 12 11 13 25 2z
m907 -59 c-4 -59 -22 -73 -22 -17 0 30 17 82 24 72 1 -1 0 -27 -2 -55z m-600
28 c5 -4 -9 -13 -30 -20 -40 -15 -144 -77 -207 -125 -28 -21 -34 -24 -21 -8
23 26 11 29 -18 5 -11 -10 -7 -1 9 19 17 20 36 37 44 37 11 1 10 -4 -4 -19
-29 -33 -11 -23 70 35 74 53 88 67 42 44 -17 -8 -15 -4 8 18 25 24 36 29 65
25 19 -3 38 -8 42 -11z m-187 -26 c2 -14 -1 -23 -5 -20 -5 3 -6 13 -3 22 4 11
3 14 -5 9 -8 -5 -10 -2 -6 9 8 20 16 12 19 -20z m1289 19 c3 -8 2 -12 -4 -9
-6 3 -10 10 -10 16 0 14 7 11 14 -7z m-1445 -16 c-2 -13 0 -29 5 -37 6 -9 5
-12 -5 -9 -8 3 -14 14 -13 26 0 11 -2 21 -5 20 -18 -2 -31 3 -31 12 0 6 12 10
26 10 21 0 25 -4 23 -22z m776 17 c-5 -3 -57 -14 -115 -25 -150 -30 -331 -92
-456 -155 -82 -42 -110 -52 -121 -44 -11 10 -7 16 19 36 18 14 51 33 73 44 33
16 36 16 15 2 -77 -56 -71 -62 18 -19 51 25 133 59 182 77 50 17 90 35 90 40
0 5 7 6 14 3 8 -3 41 2 73 11 47 14 54 19 38 26 -12 4 20 8 80 8 55 -1 96 -2
90 -4z m818 -32 c9 3 19 2 22 -3 4 -6 -3 -10 -14 -10 -12 0 -21 -4 -21 -10 0
-5 -4 -10 -10 -10 -5 0 -10 7 -10 15 0 8 -6 15 -14 15 -8 0 -13 8 -11 18 2 9
4 19 4 22 1 3 10 -6 20 -19 12 -15 24 -22 34 -18z m770 30 c-7 -2 -19 -2 -25
0 -7 3 -2 5 12 5 14 0 19 -2 13 -5z m-851 -45 c2 -25 8 -44 16 -44 22 -2 23
-4 17 -14 -9 -15 -64 20 -58 37 3 7 -1 13 -8 13 -11 0 -11 3 1 10 8 5 10 10 4
10 -6 0 -11 7 -11 15 0 8 8 15 18 15 14 0 19 -10 21 -42z m-1572 28 c0 -3 -4
-8 -10 -11 -5 -3 -10 -1 -10 4 0 6 5 11 10 11 6 0 10 -2 10 -4z m1090 -6 c12
-8 11 -10 -7 -10 -13 0 -23 5 -23 10 0 13 11 13 30 0z m195 0 c-3 -5 -16 -10
-28 -9 -20 1 -20 2 3 9 14 4 26 8 28 9 2 1 0 -3 -3 -9z m1049 1 c4 -5 24 -12
45 -16 22 -3 47 -15 56 -26 30 -32 -7 -35 -58 -6 -46 27 -77 57 -59 57 6 0 13
-4 16 -9z m-629 -21 c3 -5 1 -10 -4 -10 -6 0 -11 5 -11 10 0 6 2 10 4 10 3 0
8 -4 11 -10z m-1475 -16 c0 -8 -19 -13 -24 -6 -3 5 1 9 9 9 8 0 15 -2 15 -3z
m2003 -14 c3 -11 -1 -27 -10 -35 -8 -8 -10 -15 -5 -15 13 0 22 -39 11 -46 -5
-3 -9 4 -9 15 0 12 -7 21 -15 21 -8 0 -15 5 -15 11 0 5 -4 8 -9 4 -5 -3 -12
-1 -16 5 -3 5 -1 10 5 10 7 0 21 11 32 25 24 30 24 30 31 5z m-1258 -50 c18 0
29 6 32 20 5 18 7 18 26 5 12 -8 35 -15 52 -15 l30 -1 -27 -14 c-43 -24 -43
-47 1 -143 25 -55 41 -104 41 -127 l0 -38 -21 27 c-23 29 -99 77 -132 83 -12
2 -35 6 -52 9 -46 8 -108 -16 -116 -46 -4 -16 -7 -19 -8 -7 -1 25 -13 21 -48
-15 -40 -43 -63 -90 -66 -135 -2 -33 2 -39 33 -55 19 -9 32 -17 29 -18 -21 -1
-179 66 -189 82 -3 4 -62 10 -130 14 -116 5 -132 4 -215 -21 -49 -14 -108 -37
-131 -50 -45 -26 -118 -102 -136 -140 -7 -16 -19 -25 -34 -25 -12 0 -24 -4
-26 -8 -1 -5 -50 -30 -108 -56 -58 -25 -126 -63 -152 -84 -43 -34 -108 -107
-108 -121 0 -3 89 -8 198 -10 188 -3 198 -5 224 -26 15 -13 43 -29 63 -35 19
-6 35 -15 35 -19 0 -4 18 -26 40 -49 23 -23 58 -75 78 -115 34 -67 37 -78 37
-162 0 -79 -3 -96 -27 -137 -33 -59 -22 -61 26 -8 20 22 36 38 36 36 0 -2 -7
-21 -16 -42 l-16 -39 22 20 23 20 -8 -23 c-4 -13 -7 -56 -7 -96 1 -70 14 -123
52 -208 l19 -43 1 50 1 50 25 -60 c14 -33 26 -81 27 -107 2 -51 6 -52 24 -5
12 30 13 28 8 -28 -5 -56 -4 -58 8 -30 12 26 13 19 10 -70 -1 -61 1 -94 7 -86
5 9 7 -10 4 -50 -3 -46 -1 -57 5 -39 7 18 8 10 5 -30 -3 -30 -1 -68 5 -85 9
-29 9 -28 10 15 l1 45 26 -45 c34 -60 61 -88 109 -112 22 -12 54 -32 72 -45
18 -14 36 -22 41 -19 6 3 16 -2 23 -12 12 -15 12 -16 -2 -7 -8 6 -6 3 5 -5 11
-8 41 -36 67 -62 39 -38 46 -42 39 -22 -6 14 -10 27 -10 29 0 2 25 -22 56 -53
33 -34 54 -49 50 -37 -6 19 -5 19 13 -2 10 -12 37 -43 61 -70 36 -41 40 -43
26 -16 -25 50 -19 48 27 -9 24 -29 49 -53 56 -53 8 0 24 -14 38 -31 l24 -31
-50 -74 c-61 -91 -237 -312 -315 -397 l-59 -63 -31 26 c-97 80 -100 81 -176
83 -69 2 -73 1 -101 -29 -32 -34 -40 -97 -15 -118 11 -9 12 -7 9 12 -4 18 5
32 33 56 l37 33 15 -27 c12 -24 18 -27 48 -22 19 3 34 2 34 -4 0 -5 9 -18 20
-29 19 -19 19 -19 -18 -29 -20 -6 -76 -13 -124 -17 -81 -5 -92 -9 -148 -47
-34 -22 -68 -53 -76 -68 -39 -76 8 -170 96 -194 19 -5 21 -4 10 4 -8 6 -11 11
-5 11 5 0 0 7 -12 15 -23 16 -38 64 -29 92 9 28 47 47 96 49 25 0 54 4 64 9
17 7 18 6 11 -11 -5 -10 -10 -40 -13 -65 -3 -41 0 -49 31 -82 22 -24 43 -37
60 -37 l25 0 -29 29 c-30 31 -39 71 -15 71 11 0 55 30 103 70 7 5 21 10 32 10
10 0 48 9 82 20 35 10 64 18 66 16 7 -6 -100 -130 -130 -150 -47 -32 -55 -74
-29 -139 12 -29 22 -61 22 -72 1 -38 37 -101 80 -137 98 -84 236 -69 333 35
l37 41 0 -45 c0 -34 -11 -67 -40 -125 -49 -97 -50 -118 -7 -145 22 -14 25 -19
9 -14 -12 4 -35 0 -51 -8 -25 -13 -29 -12 -40 4 -20 34 -63 20 -72 -23 -3 -13
-8 -15 -19 -8 -12 8 -13 13 -3 29 7 11 9 22 4 25 -11 7 -51 -23 -51 -38 0 -8
-7 -17 -16 -20 -11 -4 -15 -2 -11 6 20 56 25 52 -106 82 -67 15 -163 41 -213
57 -50 16 -93 29 -95 29 -2 0 -4 -24 -4 -52 l0 -53 65 -23 c88 -32 285 -82
320 -82 25 0 49 -25 35 -38 -2 -3 -35 4 -72 16 -182 55 -294 85 -300 78 -13
-12 14 -27 103 -56 49 -16 81 -29 72 -30 -38 -1 -351 118 -315 120 4 0 22 -7
38 -16 28 -14 30 -14 27 1 -2 9 -36 31 -81 51 -90 39 -102 42 -67 13 14 -11
18 -17 10 -13 -43 21 -221 159 -252 195 -16 19 -17 19 -23 -2 -6 -17 6 -34 62
-88 123 -121 299 -251 337 -251 17 1 14 4 -13 19 l-35 19 40 -3 c48 -3 76 -14
68 -26 -3 -5 18 -20 48 -33 46 -20 71 -23 184 -25 72 -1 142 3 157 8 19 8 27
7 31 -4 4 -11 -17 -14 -112 -17 -64 -2 -123 1 -130 6 -8 6 -22 4 -36 -3 -13
-7 -32 -11 -42 -9 -11 3 -31 -2 -46 -9 -16 -7 -28 -11 -28 -8 0 12 -43 -32
-51 -53 -5 -12 -13 -22 -18 -22 -6 0 -8 6 -5 14 3 8 1 17 -5 21 -6 3 -11 11
-11 17 0 7 5 6 15 -2 12 -10 18 -9 31 5 9 9 28 24 41 32 l25 17 -24 18 c-27
20 -68 24 -69 6 0 -10 -2 -10 -6 0 -2 6 -9 12 -14 12 -26 0 -261 184 -355 279
-40 39 -70 61 -85 62 l-24 0 23 9 c29 12 38 37 24 61 -25 39 -10 32 33 -18 26
-29 77 -70 122 -96 85 -50 272 -141 278 -135 2 2 0 26 -3 55 l-7 52 -121 59
c-249 123 -433 252 -594 418 -232 238 -406 517 -503 804 -37 111 -77 267 -77
303 0 12 -7 34 -14 50 -12 21 -12 27 -2 27 7 0 22 11 35 23 19 21 20 25 6 37
-12 10 -15 10 -15 -4 0 -15 -2 -15 -13 -4 -7 7 -16 23 -19 36 -5 19 -2 22 22
22 49 0 75 60 42 100 -11 13 -17 32 -14 42 5 22 11 22 36 3 33 -25 89 -18 163
21 37 20 93 44 123 54 l55 17 -50 15 c-27 9 -90 35 -139 59 -92 44 -105 45
-178 14 -15 -6 -14 -1 5 34 20 38 21 43 6 68 -12 22 -22 28 -48 28 -29 0 -31
2 -26 25 9 34 13 36 35 22 18 -11 20 -9 20 18 0 19 -7 34 -20 42 -12 8 -20 24
-20 41 0 88 133 519 202 652 97 187 239 375 412 543 113 110 116 114 116 156
l0 44 51 -3 c49 -3 56 0 171 78 104 69 123 79 139 69 18 -12 24 -6 20 20 -1
10 114 67 224 111 92 37 382 117 423 117 12 0 22 5 22 11 0 5 5 7 10 4 6 -4 8
-10 5 -15 -3 -5 0 -12 6 -16 8 -4 9 -3 5 4 -4 7 -3 12 3 12 5 0 13 -4 16 -10
12 -20 25 -10 19 14 -10 40 7 53 22 17 10 -24 19 -31 39 -31z m870 40 c13 -6
15 -9 5 -9 -8 0 -22 4 -30 9 -18 12 -2 12 25 0z m510 0 c3 -5 1 -10 -4 -10 -6
0 -11 5 -11 10 0 6 2 10 4 10 3 0 8 -4 11 -10z m-1205 -4 c0 -2 -8 -10 -17
-17 -16 -13 -17 -12 -4 4 13 16 21 21 21 13z m555 -32 c2 -16 2 -23 -1 -16 -3
6 -15 12 -27 12 -20 0 -20 0 -1 19 23 22 24 22 29 -15z m-1812 11 c-3 -9 -8
-14 -10 -11 -3 3 -2 9 2 15 9 16 15 13 8 -4z m2710 -43 c-3 -12 -9 -22 -14
-22 -5 0 -6 -8 -2 -17 5 -15 3 -16 -8 -5 -20 18 -36 15 -42 -10 -4 -12 -8 -20
-11 -17 -13 13 10 53 43 74 20 12 37 22 38 21 1 -1 0 -12 -4 -24z m41 -15 c-1
-12 -3 -25 -3 -29 -1 -4 -7 -5 -14 -2 -8 3 -13 17 -11 32 3 34 2 32 17 26 8
-3 12 -15 11 -27z m-2619 -3 c30 -19 33 -34 6 -27 -10 3 -28 0 -39 -6 -14 -7
-23 -8 -27 -1 -3 5 -17 10 -31 10 -13 0 -24 4 -24 9 0 15 23 19 45 8 15 -8 22
-6 30 7 12 20 10 20 40 0z m445 6 c0 -5 -5 -10 -11 -10 -5 0 -7 5 -4 10 3 6 8
10 11 10 2 0 4 -4 4 -10z m1387 4 c-3 -3 -12 -4 -19 -1 -8 3 -5 6 6 6 11 1 17
-2 13 -5z m68 -24 c-3 -5 -10 -10 -16 -10 -5 0 -9 5 -9 10 0 6 7 10 16 10 8 0
12 -4 9 -10z m785 -65 c0 -8 -4 -17 -10 -20 -6 -3 -9 4 -8 19 2 25 18 26 18 1z
m-260 -39 c0 -42 -23 -53 -51 -25 -20 20 -20 22 -3 40 9 10 25 19 36 19 14 0
18 -8 18 -34z m165 -85 c-3 -6 -11 -11 -17 -11 -6 0 -6 6 2 15 14 17 26 13 15
-4z m-1818 -53 c-3 -8 -6 -5 -6 6 -1 11 2 17 5 13 3 -3 4 -12 1 -19z m1663
-11 c0 -19 -10 -27 -26 -20 -21 8 -17 33 6 33 11 0 20 -6 20 -13z m510 -29 c0
-18 -2 -20 -9 -8 -6 8 -7 18 -5 22 9 14 14 9 14 -14z m-335 -8 c3 -5 2 -10 -4
-10 -5 0 -13 5 -16 10 -3 6 -2 10 4 10 5 0 13 -4 16 -10z m-2944 -39 c-10 -19
-51 -48 -51 -37 0 7 54 62 58 60 2 -1 -1 -12 -7 -23z m3288 -13 c-9 -16 -13
-17 -22 -8 -9 10 -9 14 1 17 6 3 10 9 7 14 -4 5 1 6 9 3 12 -5 13 -10 5 -26z
m-3513 -35 c-10 -10 -19 5 -10 18 6 11 8 11 12 0 2 -7 1 -15 -2 -18z m3318 -1
c2 -4 -4 -9 -15 -9 -11 -1 -17 2 -14 8 7 11 22 12 29 1z m-3234 -6 c0 -3 -4
-8 -10 -11 -5 -3 -10 -1 -10 4 0 6 5 11 10 11 6 0 10 -2 10 -4z m-80 -41 c-13
-16 -6 -50 8 -41 5 3 7 -6 4 -19 -6 -35 -22 -42 -22 -10 0 22 -3 25 -21 20
-18 -6 -20 -4 -14 17 7 24 31 48 48 48 5 0 4 -7 -3 -15z m1355 -6 c31 -12 55
-23 53 -25 -4 -3 -109 34 -117 42 -9 8 10 3 64 -17z m2145 2 c0 -14 6 -19 18
-17 9 2 23 -2 30 -10 14 -15 7 -18 -29 -15 -9 1 -19 -5 -23 -14 -11 -30 -25
-6 -16 27 5 17 7 35 4 39 -3 5 0 9 5 9 6 0 11 -9 11 -19z m-3401 5 c-10 -9
-69 -36 -69 -32 0 7 52 35 64 36 5 0 7 -2 5 -4z m3517 -24 c-2 -9 -11 -19 -21
-21 -17 -3 -18 -2 -2 14 10 9 14 21 11 27 -4 6 -2 8 4 5 5 -4 9 -15 8 -25z
m-3467 -20 c-79 -66 -222 -228 -303 -342 -46 -66 -192 -342 -207 -392 -5 -19
-3 -31 7 -39 7 -6 11 -15 8 -20 -9 -15 -22 -10 -26 9 -3 9 -19 -27 -36 -82
-31 -94 -32 -99 -15 -113 17 -14 17 -14 -4 -10 -19 4 -22 -1 -32 -57 -6 -35
-11 -74 -11 -87 0 -14 -4 -29 -10 -35 -6 -6 -6 -21 2 -42 11 -28 10 -34 -2
-42 -46 -28 6 288 79 489 65 179 271 526 360 605 11 11 21 24 21 30 0 7 12 19
28 29 15 9 54 43 87 75 33 32 68 59 79 59 12 1 5 -10 -25 -35z m3206 28 c-3
-5 -10 -10 -16 -10 -5 0 -9 5 -9 10 0 6 7 10 16 10 8 0 12 -4 9 -10z m385 -70
c0 -5 -5 -10 -11 -10 -5 0 -7 5 -4 10 3 6 8 10 11 10 2 0 4 -4 4 -10z m-132
-55 c-1 -36 -18 -50 -18 -16 0 20 10 51 16 51 2 0 3 -16 2 -35z m129 -12 c-3
-10 -5 -2 -5 17 0 19 2 27 5 18 2 -10 2 -26 0 -35z m-32 5 c-1 -13 -3 -27 -4
-32 -2 -15 -18 5 -26 32 -5 17 -2 22 13 22 14 0 19 -6 17 -22z m-275 -18 c0
-5 6 -10 14 -10 14 0 32 -18 25 -25 -9 -8 -70 26 -64 35 8 13 25 13 25 0z
m-3510 -47 c-78 -68 -156 -153 -222 -242 -70 -93 -170 -274 -196 -358 -21 -62
-40 -194 -46 -313 -2 -36 -2 -4 0 70 2 74 7 159 12 188 5 29 5 49 1 45 -4 -5
-11 -33 -17 -63 l-10 -55 4 74 c2 60 7 78 26 99 23 24 23 25 1 13 -31 -16 -40
-14 -46 9 -4 16 0 20 17 20 25 0 89 43 121 81 11 12 -4 3 -33 -21 -28 -24 -55
-41 -58 -38 -3 3 22 32 56 64 36 34 59 63 55 71 -2 8 -1 12 4 9 5 -3 37 31 72
77 101 130 188 226 248 273 74 58 79 56 11 -3z m1967 -15 c-3 -8 -6 -5 -6 6
-1 11 2 17 5 13 3 -3 4 -12 1 -19z m-2307 -44 c0 -8 -4 -14 -10 -14 -5 0 -10
9 -10 21 0 11 5 17 10 14 6 -3 10 -13 10 -21z m-3 -56 c-3 -8 -6 -5 -6 6 -1
11 2 17 5 13 3 -3 4 -12 1 -19z m4117 -165 c46 -57 105 -142 132 -189 26 -48
59 -97 71 -109 21 -18 22 -25 13 -50 -6 -15 -9 -30 -6 -32 2 -2 9 12 16 31 8
26 17 36 32 36 17 0 19 -4 13 -22 -7 -21 -10 -41 -14 -95 -1 -15 -3 -15 -10
-4 -6 9 -8 -35 -5 -114 2 -71 2 -127 0 -124 -3 2 -10 54 -16 114 -11 117 -43
250 -64 275 -8 8 -19 31 -25 50 -16 52 -38 84 -157 231 -59 74 -114 143 -123
154 -8 11 2 4 23 -15 21 -19 75 -81 120 -137z m-4117 80 c-3 -10 -5 -4 -5 12
0 17 2 24 5 18 2 -7 2 -21 0 -30z m4060 -131 c15 -26 30 -49 34 -52 4 -3 28
-52 54 -110 25 -58 54 -121 63 -140 9 -19 15 -39 14 -43 -1 -4 2 -16 7 -25 4
-9 11 -35 15 -57 3 -26 -6 -8 -27 50 -25 71 -36 90 -51 88 -15 -1 -17 4 -12
27 8 40 -53 179 -129 295 -11 16 -14 26 -8 22 7 -5 25 -29 40 -55z m393 -2 c0
-5 -5 -10 -11 -10 -5 0 -7 5 -4 10 3 6 8 10 11 10 2 0 4 -4 4 -10z m-4402 -65
c-6 -14 -13 -23 -15 -21 -5 5 15 46 22 46 3 0 -1 -11 -7 -25z m-57 -118 c-35
-81 -60 -180 -72 -282 -6 -55 -14 -102 -16 -105 -9 -8 7 150 22 221 13 65 73
224 81 216 3 -2 -4 -25 -15 -50z m1898 17 c2 -2 -28 -4 -68 -4 -106 0 -155
-30 -225 -134 -14 -21 -26 -34 -26 -28 0 18 86 127 115 146 16 10 40 22 54 26
24 7 141 2 150 -6z m2441 -56 c0 -5 8 -8 18 -9 11 0 12 -2 4 -6 -17 -6 -50 23
-69 62 -15 30 -15 29 16 -5 16 -19 30 -38 31 -42z m-223 6 c-3 -3 -12 -4 -19
-1 -8 3 -5 6 6 6 11 1 17 -2 13 -5z m-4352 -114 c3 -5 1 -10 -5 -10 -7 0 -10
-7 -7 -14 4 -10 1 -13 -9 -9 -15 5 -19 25 -7 36 9 10 21 9 28 -3z m302 -12
c-3 -8 -6 -5 -6 6 -1 11 2 17 5 13 3 -3 4 -12 1 -19z m1510 -30 c-3 -8 -6 -5
-6 6 -1 11 2 17 5 13 3 -3 4 -12 1 -19z m-10 -50 c-3 -8 -6 -5 -6 6 -1 11 2
17 5 13 3 -3 4 -12 1 -19z m2750 -10 c-3 -7 -5 -2 -5 12 0 14 2 19 5 13 2 -7
2 -19 0 -25z m10 -55 c-3 -10 -5 -4 -5 12 0 17 2 24 5 18 2 -7 2 -21 0 -30z
m-2750 5 c-3 -8 -6 -5 -6 6 -1 11 2 17 5 13 3 -3 4 -12 1 -19z m2653 12 c0 -5
-8 -10 -17 -10 -15 0 -16 2 -3 10 19 12 20 12 20 0z m-4513 -15 c0 -8 -4 -12
-9 -9 -5 3 -6 10 -3 15 9 13 12 11 12 -6z m2004 -12 c13 -16 12 -17 -3 -4 -10
7 -18 15 -18 17 0 8 8 3 21 -13z m2556 -35 c-3 -8 -6 -5 -6 6 -1 11 2 17 5 13
3 -3 4 -12 1 -19z m60 -60 c-2 -13 -4 -3 -4 22 0 25 2 35 4 23 2 -13 2 -33 0
-45z m-4612 47 c-23 -8 -83 -10 -79 -3 3 4 24 8 47 7 23 0 38 -2 32 -4z m4520
-5 c3 -5 1 -10 -4 -10 -6 0 -11 5 -11 10 0 6 2 10 4 10 3 0 8 -4 11 -10z m339
-35 c3 -8 1 -15 -4 -15 -6 0 -10 7 -10 15 0 8 2 15 4 15 2 0 6 -7 10 -15z
m-277 -87 c-2 -13 -4 -3 -4 22 0 25 2 35 4 23 2 -13 2 -33 0 -45z m299 50 c5
-7 3 -8 -7 -3 -12 7 -11 5 1 -11 7 -10 21 -25 29 -32 12 -10 13 -16 4 -31 -10
-16 -8 -22 8 -36 14 -13 16 -21 8 -31 -6 -7 -17 -10 -25 -7 -8 3 -14 -1 -14
-8 0 -7 -3 -9 -6 -6 -12 12 17 36 34 29 12 -4 10 3 -8 26 -14 17 -32 30 -41
28 -9 -2 -21 5 -27 15 -9 14 -8 20 5 27 10 6 14 17 10 31 -6 23 16 30 29 9z
m-2935 -55 c13 -16 12 -17 -3 -4 -10 7 -18 15 -18 17 0 8 8 3 21 -13z m530
-10 c13 -16 12 -17 -3 -4 -10 7 -18 15 -18 17 0 8 8 3 21 -13z m2156 -45 c-2
-13 -4 -3 -4 22 0 25 2 35 4 23 2 -13 2 -33 0 -45z m101 31 c-3 -8 -7 -3 -11
10 -4 17 -3 21 5 13 5 -5 8 -16 6 -23z m-3221 -1 c-3 -8 -6 -5 -6 6 -1 11 2
17 5 13 3 -3 4 -12 1 -19z m3033 12 c0 -5 -2 -10 -4 -10 -3 0 -8 5 -11 10 -3
6 -1 10 4 10 6 0 11 -4 11 -10z m-4373 -42 c-3 -7 -5 -2 -5 12 0 14 2 19 5 13
2 -7 2 -19 0 -25z m4423 -14 c0 -32 -4 -44 -12 -42 -16 6 -22 32 -14 64 10 40
26 27 26 -22z m155 -13 c3 -5 2 -12 -3 -15 -5 -3 -9 1 -9 9 0 17 3 19 12 6z
m-128 -33 c-3 -7 -5 -2 -5 12 0 14 2 19 5 13 2 -7 2 -19 0 -25z m-1071 -88
c32 -47 99 -128 147 -180 80 -85 187 -237 187 -265 0 -5 -16 17 -36 50 -44 73
-79 118 -168 215 -58 64 -173 219 -201 270 -16 31 13 -6 71 -90z m-3387 44
c-22 -43 -20 -86 8 -116 22 -24 83 -24 115 2 28 22 49 11 41 -21 -4 -14 -14
-19 -41 -19 l-35 0 19 -21 c21 -24 21 -24 -58 13 -46 22 -58 33 -68 63 -14 42
-8 83 16 120 25 38 27 25 3 -21z m4768 40 c-3 -3 -12 -4 -19 -1 -8 3 -5 6 6 6
11 1 17 -2 13 -5z m-177 -36 c0 -7 -5 -20 -11 -28 -9 -12 -10 -11 -6 7 3 15 1
20 -9 16 -8 -3 -14 0 -14 6 0 6 9 11 20 11 11 0 20 -6 20 -12z m-2735 -28 c9
-16 13 -30 11 -30 -3 0 -12 14 -21 30 -9 17 -13 30 -11 30 3 0 12 -13 21 -30z
m2625 -57 c0 -57 -8 -73 -44 -89 -19 -8 -24 -13 -13 -14 22 0 24 -40 1 -40 -8
0 -13 4 -10 9 11 17 -38 21 -56 5 -9 -9 -22 -13 -28 -9 -8 5 -6 11 6 19 22 16
9 38 -19 34 -14 -2 -23 3 -25 15 -4 22 26 34 47 19 53 -38 116 -31 127 14 7
26 2 76 -10 109 -5 13 -2 11 8 -5 8 -14 15 -44 16 -67z m-2693 -5 c-3 -8 -6
-5 -6 6 -1 11 2 17 5 13 3 -3 4 -12 1 -19z m142 -61 c28 -42 49 -77 46 -77 -5
0 -77 106 -95 140 -20 40 -5 20 49 -63z m2661 53 c0 -5 -9 -10 -21 -10 -11 0
-17 5 -14 10 3 6 13 10 21 10 8 0 14 -4 14 -10z m155 -10 c3 -5 -1 -10 -9 -10
-8 0 -18 5 -21 10 -3 6 1 10 9 10 8 0 18 -4 21 -10z m-2880 -155 c36 -57 129
-145 154 -145 9 0 27 -9 41 -20 27 -21 60 -26 60 -10 0 6 5 10 12 10 6 0 23
10 37 22 14 13 10 6 -8 -15 -43 -46 -65 -47 -143 -5 -83 44 -158 129 -197 222
-17 41 -31 81 -30 88 0 7 9 -12 21 -42 12 -30 35 -78 53 -105z m-2100 106 c-2
-35 -15 -36 -15 -2 0 18 4 30 8 27 5 -3 8 -14 7 -25z m270 -23 c-11 -6 -23
-16 -27 -22 -5 -7 -8 -8 -8 0 0 15 22 34 40 34 11 -1 10 -4 -5 -12z m4708 -49
c-9 -9 -12 -7 -10 9 1 14 5 18 11 12 7 -7 6 -14 -1 -21z m-2485 -69 c0 -8 -6
1 -13 20 -7 19 -13 42 -13 50 0 8 6 -1 13 -20 7 -19 13 -42 13 -50z m-228 4
c18 -26 29 -45 24 -42 -5 4 -25 28 -44 54 -18 26 -29 45 -24 42 5 -4 25 -28
44 -54z m1439 1 c0 -5 -6 1 -14 15 -8 14 -14 30 -14 35 0 6 6 -1 14 -15 8 -14
14 -29 14 -35z m835 39 c3 -8 2 -12 -4 -9 -6 3 -10 10 -10 16 0 14 7 11 14 -7z
m290 -34 c7 -24 6 -24 -8 -6 -9 11 -16 16 -16 10 0 -5 -4 -2 -10 6 -6 9 -5 19
2 28 13 15 20 6 32 -38z m-374 30 c0 -5 -5 -9 -12 -7 -7 1 -14 -9 -17 -23 -6
-27 -33 -33 -51 -12 -7 8 -7 9 1 3 15 -12 39 -3 39 15 0 8 -11 15 -27 15 -25
2 -24 2 7 9 52 11 60 11 60 0z m135 -18 c-8 -8 -25 10 -19 20 4 6 9 5 15 -3 4
-7 6 -15 4 -17z m165 1 c0 -10 -4 -14 -8 -8 -4 6 -11 13 -16 18 -5 4 -2 7 7 7
10 0 17 -8 17 -17z m-222 -36 c-14 -5 -24 -3 -29 5 -11 18 11 28 32 15 18 -11
18 -12 -3 -20z m-979 -347 c-2 -21 -139 336 -139 362 0 7 32 -70 70 -172 39
-101 70 -187 69 -190z m-532 328 c-3 -7 -5 -2 -5 12 0 14 2 19 5 13 2 -7 2
-19 0 -25z m1929 11 c3 -6 2 -14 -3 -18 -6 -3 -13 -13 -16 -21 -3 -8 -6 0 -6
18 -1 32 11 42 25 21z m-606 -9 c0 -5 -5 -10 -11 -10 -5 0 -7 5 -4 10 3 6 8
10 11 10 2 0 4 -4 4 -10z m155 -10 c3 -5 1 -10 -4 -10 -6 0 -11 5 -11 10 0 6
2 10 4 10 3 0 8 -4 11 -10z m372 -10 c34 0 28 -15 -7 -16 -16 -1 -30 3 -30 8
0 5 -4 6 -10 3 -5 -3 -10 -2 -10 3 0 16 13 23 24 12 5 -5 20 -10 33 -10z
m-2556 -17 c13 -16 12 -17 -3 -4 -17 13 -22 21 -14 21 2 0 10 -8 17 -17z m120
-6 c-10 -9 -11 -8 -5 6 3 10 9 15 12 12 3 -3 0 -11 -7 -18z m1318 -32 c0 -5
-6 1 -14 15 -8 14 -14 30 -14 35 0 6 6 -1 14 -15 8 -14 14 -29 14 -35z m687
28 c-7 -7 -26 7 -26 19 0 6 6 6 15 -2 9 -7 13 -15 11 -17z m-4106 -18 c-7 -8
-22 -15 -34 -15 -20 0 -19 1 4 14 34 19 45 19 30 1z m2280 -20 c0 -5 -5 -3
-10 5 -5 8 -10 20 -10 25 0 6 5 3 10 -5 5 -8 10 -19 10 -25z m2260 14 c0 -14
-17 -10 -23 5 -4 10 -1 13 9 9 7 -3 14 -9 14 -14z m-1843 -31 c-3 -8 -6 -5 -6
6 -1 11 2 17 5 13 3 -3 4 -12 1 -19z m1907 -38 c-1 -8 -3 -23 -3 -33 -1 -10
-5 -15 -11 -12 -5 3 -10 1 -10 -6 0 -10 -3 -10 -12 -1 -8 8 -8 15 1 26 7 8 9
21 5 27 -4 8 -3 9 4 5 8 -5 12 0 12 13 0 16 -7 21 -27 22 l-28 1 30 7 c25 5
31 3 36 -14 3 -11 5 -27 3 -35z m-4555 -1 c-8 -4 -22 0 -36 11 -18 14 -34 17
-61 13 -46 -7 -64 -23 -64 -57 0 -15 -4 -29 -9 -32 -18 -11 -8 54 11 79 18 23
29 26 93 29 64 3 72 1 75 -16 2 -10 -2 -22 -9 -27z m3406 -57 c5 -44 4 -43 -9
13 -8 33 -17 69 -20 80 -4 11 1 5 9 -13 9 -18 18 -54 20 -80z m-1155 63 c0 -5
-5 -3 -10 5 -5 8 -10 20 -10 25 0 6 5 3 10 -5 5 -8 10 -19 10 -25z m-53 3 c-3
-8 -6 -5 -6 6 -1 11 2 17 5 13 3 -3 4 -12 1 -19z m707 -35 c14 -29 24 -53 21
-53 -5 0 -55 95 -55 106 0 12 6 2 34 -53z m-247 10 c-3 -10 -5 -4 -5 12 0 17
2 24 5 18 2 -7 2 -21 0 -30z m-411 -110 c11 -30 29 -51 60 -73 25 -16 47 -30
50 -30 2 0 -20 47 -51 103 -67 127 -73 154 -7 37 26 -47 56 -97 66 -112 13
-20 14 -27 4 -30 -12 -5 87 -38 111 -38 14 0 14 17 1 25 -13 8 -101 138 -124
183 -25 48 -3 39 24 -10 13 -24 45 -75 73 -115 l49 -72 51 20 c29 10 60 24 69
29 12 6 19 6 24 -2 4 -6 3 -8 -4 -4 -6 3 -13 2 -16 -3 -3 -5 -18 -12 -32 -15
-14 -4 -46 -16 -70 -27 -40 -19 -49 -20 -96 -9 -61 15 -138 62 -188 116 -19
20 -29 34 -22 30 16 -9 15 2 -3 54 -8 23 -15 48 -14 54 0 6 7 -7 15 -29 8 -22
21 -59 30 -82z m2410 91 c-3 -9 -6 -23 -6 -31 0 -13 -3 -13 -15 -3 -11 9 -12
17 -4 31 12 23 34 26 25 3z m-1952 -102 c9 -18 14 -32 11 -32 -3 0 -17 24 -30
53 l-25 52 -2 -50 c-1 -46 -2 -47 -5 -11 -3 22 -1 51 2 65 7 26 7 26 20 -10 7
-20 20 -50 29 -67z m637 61 c13 -16 12 -17 -3 -4 -17 13 -22 21 -14 21 2 0 10
-8 17 -17z m-1261 -48 c52 -67 110 -115 153 -125 28 -7 29 -8 7 -9 -46 -2
-120 58 -181 147 -42 60 -29 52 21 -13z m932 -41 c53 -49 156 -93 169 -72 5 7
9 9 10 3 0 -5 2 -21 5 -35 3 -20 2 -22 -6 -8 -6 9 -35 24 -65 32 -40 12 -70
31 -115 72 -33 31 -60 64 -59 73 0 12 2 11 8 -4 5 -11 29 -39 53 -61z m-3362
40 c0 -22 -2 -25 -15 -14 -12 10 -13 16 -4 26 16 20 19 18 19 -12z m213 -24
c-6 -6 -33 30 -33 44 0 6 9 0 20 -14 10 -14 16 -27 13 -30z m3536 3 c-1 -33
-2 -35 -8 -13 -4 14 -6 31 -3 38 8 22 12 13 11 -25z m-599 -23 c6 -11 8 -20 6
-20 -3 0 -10 9 -16 20 -6 11 -8 20 -6 20 3 0 10 -9 16 -20z m767 -57 c55 -86
132 -224 116 -208 -10 10 -138 219 -162 263 -26 48 0 18 46 -55z m853 36 c0
-6 -4 -7 -10 -4 -5 3 -10 11 -10 16 0 6 5 7 10 4 6 -3 10 -11 10 -16z m-4480
-9 c0 -5 -5 -10 -11 -10 -5 0 -7 5 -4 10 3 6 8 10 11 10 2 0 4 -4 4 -10z
m3465 -197 c-4 -16 -17 -26 -48 -34 -23 -6 -48 -16 -55 -21 -15 -13 -12 -18
-39 61 -29 81 -24 90 8 16 l24 -56 40 6 c62 9 65 16 67 134 l2 106 4 -95 c1
-52 0 -105 -3 -117z m959 192 c3 -8 1 -15 -4 -15 -6 0 -10 7 -10 15 0 8 2 15
4 15 2 0 6 -7 10 -15z m-1614 -15 c6 -11 8 -20 6 -20 -3 0 -10 9 -16 20 -6 11
-8 20 -6 20 3 0 10 -9 16 -20z m94 -20 c15 -23 31 -38 36 -35 5 3 22 -18 37
-47 35 -67 40 -79 17 -48 -10 14 -37 49 -61 77 -41 51 -68 93 -60 93 3 0 16
-18 31 -40z m1453 18 c-3 -8 -6 -5 -6 6 -1 11 2 17 5 13 3 -3 4 -12 1 -19z
m-740 -113 c142 -228 229 -475 197 -559 -10 -25 -25 -19 -70 25 -22 22 -47 41
-55 42 -8 2 -41 28 -75 60 -33 31 -78 69 -100 85 -42 30 -121 115 -156 166
-11 17 0 9 25 -19 25 -27 46 -53 47 -57 0 -3 42 -41 93 -84 50 -43 94 -82 95
-86 2 -5 22 -18 44 -29 23 -12 63 -42 91 -67 l50 -47 -5 85 c-4 64 -14 107
-41 175 -36 94 -113 255 -122 255 -3 0 2 -14 10 -31 9 -17 15 -32 13 -34 -2
-2 -32 53 -66 123 -67 137 -62 137 25 -3z m-3897 75 c0 -16 -4 -30 -8 -30 -5
0 -9 14 -10 30 0 17 4 30 9 30 5 0 9 -13 9 -30z m253 -89 c-11 -8 -4 -141 8
-141 5 0 9 -5 9 -11 0 -6 -7 -9 -15 -6 -12 5 -13 -10 -8 -101 6 -113 34 -211
88 -308 l25 -44 -25 16 c-14 9 -23 19 -20 23 7 13 -26 53 -39 48 -7 -3 -19 -1
-27 4 -11 7 -12 12 -1 29 6 11 12 28 11 37 0 10 -9 0 -19 -23 -17 -38 -35 -54
-62 -54 -6 0 -4 8 5 18 26 28 47 88 46 129 l-1 38 -9 -42 c-10 -54 -24 -80
-33 -64 -4 6 -3 11 1 11 11 0 16 29 17 104 1 59 1 59 -34 72 l-35 13 38 -5
c40 -7 37 -12 42 66 12 195 36 324 43 236 2 -21 0 -42 -5 -45z m2787 39 c11
-22 18 -40 15 -40 -2 0 -14 18 -25 40 -11 22 -18 40 -15 40 2 0 14 -18 25 -40z
m1700 36 c0 -2 -9 -6 -20 -9 -11 -3 -18 -1 -14 4 5 9 34 13 34 5z m120 -42 c0
-13 -4 -24 -10 -24 -5 0 -10 14 -10 31 0 17 4 28 10 24 6 -3 10 -17 10 -31z
m-1369 -46 c15 -28 5 -21 -21 15 -15 20 -17 27 -6 18 9 -8 22 -23 27 -33z
m-3491 -3 c0 -8 6 -15 13 -15 16 0 16 -35 0 -51 -7 -7 -9 -3 -6 14 4 18 0 26
-16 30 -24 6 -29 37 -6 37 8 0 15 -7 15 -15z m2850 -20 c13 -14 21 -25 18 -25
-2 0 -15 11 -28 25 -13 14 -21 25 -18 25 2 0 15 -11 28 -25z m-58 -143 c76
-68 138 -126 138 -129 0 -4 -205 177 -279 247 -74 70 7 2 141 -118z m326 80
c65 -110 170 -238 303 -371 117 -117 119 -120 31 -41 -96 86 -205 209 -284
321 -50 70 -103 159 -95 159 3 0 23 -31 45 -68z m113 13 l10 -20 -16 20 c-9
11 -21 29 -26 40 l-10 20 16 -20 c9 -11 21 -29 26 -40z m426 23 c-3 -8 -6 -5
-6 6 -1 11 2 17 5 13 3 -3 4 -12 1 -19z m-831 -20 l29 -33 -32 29 c-18 17 -33
31 -33 33 0 8 8 1 36 -29z m647 -49 l72 -6 -68 -1 c-77 -2 -96 5 -122 45 l-18
28 32 -30 c28 -26 42 -31 104 -36z m135 36 c2 -1 -3 -5 -11 -8 -7 -3 -24 1
-38 9 -23 13 -23 13 11 7 19 -3 36 -7 38 -8z m-3448 -32 c0 -21 -3 -24 -9 -14
-5 8 -7 20 -4 28 8 21 13 15 13 -14z m2332 -95 c31 -40 80 -79 103 -82 15 -2
125 -75 125 -83 0 -3 -21 -35 -46 -70 -26 -36 -62 -88 -80 -115 l-32 -50 -36
53 c-19 30 -47 82 -62 117 l-27 64 -42 -84 c-23 -46 -38 -84 -33 -86 14 -6 9
-22 -6 -16 -8 3 -33 -21 -65 -64 -28 -38 -58 -75 -66 -82 -8 -7 -13 -16 -10
-19 2 -4 -9 -8 -25 -8 -36 0 -37 5 -6 65 46 90 286 392 324 407 11 4 5 15 -22
45 -19 22 -42 56 -51 76 -21 52 -18 56 7 9 11 -22 34 -57 50 -77z m1468 67 c0
-5 -5 -3 -10 5 -5 8 -10 20 -10 25 0 6 5 3 10 -5 5 -8 10 -19 10 -25z m-3610
11 c0 -3 -4 -8 -10 -11 -5 -3 -10 -1 -10 4 0 6 5 11 10 11 6 0 10 -2 10 -4z
m3644 -106 c5 -20 3 -19 -8 5 -7 17 -16 41 -20 55 -5 20 -3 19 8 -5 7 -16 16
-41 20 -55z m-594 50 c6 -11 8 -20 6 -20 -3 0 -10 9 -16 20 -6 11 -8 20 -6 20
3 0 10 -9 16 -20z m1455 -19 c3 -5 1 -12 -5 -16 -5 -3 -10 1 -10 9 0 18 6 21
15 7z m-1344 -157 c49 -75 89 -142 89 -148 0 -6 -11 7 -23 29 -13 22 -46 74
-73 115 -28 41 -61 93 -74 115 -46 78 -7 25 81 -111z m27 101 c-3 -3 -9 2 -12
12 -6 14 -5 15 5 6 7 -7 10 -15 7 -18z m-548 -80 c19 -19 32 -35 29 -35 -3 0
-20 16 -39 35 -19 19 -32 35 -29 35 3 0 20 -16 39 -35z m-2892 0 c-3 -3 -9 2
-12 12 -6 14 -5 15 5 6 7 -7 10 -15 7 -18z m3653 -30 l10 -20 -16 20 c-9 11
-21 29 -26 40 l-10 20 16 -20 c9 -11 21 -29 26 -40z m886 33 c-3 -8 -6 -5 -6
6 -1 11 2 17 5 13 3 -3 4 -12 1 -19z m-1557 -33 c13 -14 21 -25 18 -25 -2 0
-15 11 -28 25 -13 14 -21 25 -18 25 2 0 15 -11 28 -25z m-190 -107 c207 -172
257 -228 337 -382 l53 -101 -6 60 c-9 109 -33 180 -89 265 -29 44 -48 77 -42
73 24 -15 149 -224 207 -347 35 -75 68 -132 73 -129 6 3 7 1 3 -5 -7 -11 12
-62 24 -62 3 0 17 -18 29 -41 28 -49 37 -46 16 5 -9 20 -31 96 -51 169 -56
212 -154 393 -280 522 -59 59 -43 51 30 -15 63 -57 172 -232 271 -435 51 -104
101 -201 112 -214 11 -14 -4 25 -33 85 -30 60 -54 114 -54 119 0 6 27 -44 60
-110 32 -65 56 -123 54 -127 -3 -5 -1 -7 4 -6 6 2 31 -21 56 -50 50 -58 62
-82 20 -40 l-26 26 -60 -40 c-92 -61 -270 -152 -408 -207 l-125 -51 3 -35 c2
-19 -2 -35 -8 -35 -5 0 -10 11 -10 25 0 14 -6 28 -12 30 -7 3 -74 -11 -148
-30 -152 -41 -149 -40 -172 -30 -15 6 -18 2 -18 -22 0 -42 -12 -48 -26 -13
-10 22 -20 30 -39 30 -31 0 -45 -28 -22 -45 10 -7 17 -20 17 -30 0 -31 -23
-95 -31 -89 -5 3 -9 1 -9 -5 0 -15 -41 -51 -59 -51 -11 0 -9 5 7 16 15 10 22
25 22 48 0 37 29 74 31 40 0 -15 2 -14 10 6 6 13 8 34 5 45 -6 22 -54 55 -81
55 -15 0 -15 1 -1 16 25 24 19 65 -19 138 -25 48 -35 80 -35 113 l0 46 46 -42
c56 -52 104 -73 169 -74 51 -1 101 18 144 54 21 17 22 22 10 30 -11 8 -10 9 6
7 29 -4 59 63 58 129 0 29 -5 58 -10 65 -6 7 -8 21 -4 31 6 16 10 14 36 -13
25 -26 30 -39 29 -76 -1 -50 8 -55 32 -19 12 19 15 40 12 81 -5 64 -31 105
-74 118 -56 17 -70 29 -152 129 -45 56 -100 121 -121 144 l-39 42 50 73 c27
40 70 99 94 131 25 32 42 62 39 68 -4 5 -10 7 -15 4 -4 -3 -13 2 -20 10 -7 8
-9 15 -5 15 4 0 1 8 -6 18 -17 21 -21 24 141 -110z m719 67 c0 -5 -6 1 -14 15
-8 14 -14 30 -14 35 0 6 6 -1 14 -15 8 -14 14 -29 14 -35z m-3496 14 c6 -22
-1 -49 -12 -49 -4 0 -7 16 -7 35 0 39 11 47 19 14z m283 -21 c21 -42 18 -40
38 -32 18 7 22 34 5 34 -5 0 -7 5 -4 10 9 15 25 12 25 -4 0 -7 9 -25 20 -38
10 -14 17 -28 13 -32 -3 -3 -11 1 -17 10 -12 15 -46 10 -46 -7 0 -20 124 -212
200 -311 11 -14 20 -29 20 -34 0 -13 -134 137 -138 156 -2 7 -29 56 -60 109
-64 108 -93 171 -77 171 2 0 12 -15 21 -32z m2686 -70 c27 -32 48 -58 46 -58
-2 0 -37 37 -78 83 -41 45 -61 71 -46 57 15 -14 51 -51 78 -82z m614 -58 c16
-19 21 -29 11 -21 -27 21 -77 97 -70 105 4 3 12 -6 18 -21 7 -16 25 -44 41
-63z m165 23 c13 -16 12 -17 -3 -4 -17 13 -22 21 -14 21 2 0 10 -8 17 -17z
m-481 -38 c13 -14 21 -25 18 -25 -2 0 -15 11 -28 25 -13 14 -21 25 -18 25 2 0
15 -11 28 -25z m217 3 c-3 -8 -6 -5 -6 6 -1 11 2 17 5 13 3 -3 4 -12 1 -19z
m303 -18 c12 -16 19 -30 16 -30 -2 0 -14 14 -26 30 -12 17 -19 30 -16 30 2 0
14 -13 26 -30z m-235 -10 c10 -11 16 -20 13 -20 -3 0 -13 9 -23 20 -10 11 -16
20 -13 20 3 0 13 -9 23 -20z m-1205 -11 c-7 -11 -14 -18 -17 -15 -3 3 0 12 7
21 18 21 23 19 10 -6z m1120 7 c-7 -7 -13 -7 -20 0 -6 6 -3 10 10 10 13 0 16
-4 10 -10z m161 -13 c13 -16 12 -17 -3 -4 -17 13 -22 21 -14 21 2 0 10 -8 17
-17z m-3551 -25 c0 -6 -3 -8 -7 -5 -3 4 -12 2 -20 -4 -8 -8 -13 -8 -13 -1 0
10 15 19 33 21 4 1 7 -4 7 -11z m3545 -48 c25 -33 44 -60 41 -60 -3 0 -26 27
-51 60 -25 33 -44 60 -41 60 3 0 26 -27 51 -60z m-3113 8 c-6 -6 -16 -7 -22
-3 -9 6 -9 9 1 16 17 10 34 0 21 -13z m3339 5 c13 -16 12 -17 -3 -4 -17 13
-22 21 -14 21 2 0 10 -8 17 -17z m-3673 -48 c1 -14 -2 -25 -7 -25 -12 0 -19
21 -13 38 7 20 17 14 20 -13z m254 -72 c21 -32 67 -84 101 -116 34 -33 49 -50
32 -39 -16 11 -65 56 -108 101 -76 78 -80 80 -120 77 -23 -2 -51 -7 -62 -11
-19 -6 -19 -6 -3 8 10 8 15 17 11 21 -12 12 21 27 46 21 20 -5 23 -3 18 14 -5
21 -5 21 20 1 14 -10 43 -45 65 -77z m3278 67 c12 -16 19 -30 16 -30 -2 0 -14
14 -26 30 -12 17 -19 30 -16 30 2 0 14 -13 26 -30z m-3481 -26 c-17 -21 -29
-17 -29 11 0 23 2 24 21 15 16 -9 18 -14 8 -26z m2041 23 c0 -7 -7 -22 -15
-33 -13 -17 -14 -16 -4 14 11 33 19 41 19 19z m1780 -28 c15 -28 5 -23 -15 7
-9 15 -12 23 -6 20 6 -4 16 -16 21 -27z m-3470 -20 c0 -5 -4 -9 -10 -9 -5 0
-10 7 -10 16 0 8 5 12 10 9 6 -3 10 -10 10 -16z m3111 4 c13 -16 12 -17 -3 -4
-17 13 -22 21 -14 21 2 0 10 -8 17 -17z m417 -75 c44 -71 75 -128 68 -128 -2
0 -20 28 -40 63 -19 34 -45 77 -57 95 -11 17 -19 32 -16 32 3 0 23 -28 45 -62z
m-383 32 c10 -11 16 -20 13 -20 -3 0 -13 9 -23 20 -10 11 -16 20 -13 20 3 0
13 -9 23 -20z m-365 -45 c0 -5 -5 -3 -10 5 -5 8 -10 20 -10 25 0 6 5 3 10 -5
5 -8 10 -19 10 -25z m441 8 c13 -16 12 -17 -3 -4 -17 13 -22 21 -14 21 2 0 10
-8 17 -17z m-3191 -39 c0 -5 16 -25 35 -44 19 -19 35 -38 35 -42 0 -15 -44 13
-92 59 -52 51 -56 83 -7 55 16 -10 29 -22 29 -28z m37 40 c-3 -3 -12 -4 -19
-1 -8 3 -5 6 6 6 11 1 17 -2 13 -5z m3195 -99 c6 -11 9 -18 6 -15 -2 3 -29 32
-58 65 l-54 60 48 -45 c26 -25 52 -54 58 -65z m-1322 85 c0 -5 -7 -10 -16 -10
-8 0 -12 5 -9 10 3 6 10 10 16 10 5 0 9 -4 9 -10z m-1820 -66 c0 -8 -5 -12
-10 -9 -6 4 -8 11 -5 16 9 14 15 11 15 -7z m3191 -99 l10 -20 -16 20 c-9 11
-21 29 -26 40 l-10 20 16 -20 c9 -11 21 -29 26 -40z m59 -10 c30 -30 52 -55
49 -55 -2 0 -29 25 -59 55 -30 30 -52 55 -49 55 2 0 29 -25 59 -55z m-3183
-24 c59 -69 54 -67 -36 12 -29 26 -61 47 -71 47 -28 0 -43 -25 -35 -60 5 -24
3 -30 -10 -30 -13 0 -14 -4 -5 -21 17 -31 5 -34 -19 -3 -26 33 -26 40 -1 47
12 3 20 14 20 25 0 43 10 52 56 50 40 -1 47 -6 101 -67z m-68 -22 c23 -31 14
-31 -21 -1 -10 8 -15 19 -12 23 7 13 8 12 33 -22z m2056 -19 c3 -6 -1 -7 -9
-4 -18 7 -21 14 -7 14 6 0 13 -4 16 -10z m1270 -20 c10 -11 16 -20 13 -20 -3
0 -13 9 -23 20 -10 11 -16 20 -13 20 3 0 13 -9 23 -20z m-3306 -50 c-20 -13
-2 -40 28 -40 l28 0 -25 -13 c-28 -14 -40 -68 -19 -93 18 -21 31 -17 24 9 -5
19 -4 20 5 4 12 -19 6 -37 -14 -37 -22 0 -45 34 -52 78 -4 23 -11 45 -15 48
-5 3 -6 11 -2 17 13 21 14 49 1 65 -7 9 2 6 20 -7 24 -17 30 -26 21 -31z m106
10 c3 -5 -1 -10 -9 -10 -9 0 -16 5 -16 10 0 6 4 10 9 10 6 0 13 -4 16 -10z
m3236 -7 c13 -16 12 -17 -3 -4 -17 13 -22 21 -14 21 2 0 10 -8 17 -17z m-3438
-5 c-25 -12 -29 -23 -13 -33 6 -4 8 -11 4 -16 -3 -5 -15 2 -26 17 -17 21 -19
27 -7 35 8 5 25 8 39 8 l25 0 -22 -11z m132 2 c3 -5 1 -10 -4 -10 -6 0 -11 5
-11 10 0 6 2 10 4 10 3 0 8 -4 11 -10z m3355 -55 c13 -14 21 -25 18 -25 -2 0
-15 11 -28 25 -13 14 -21 25 -18 25 2 0 15 -11 28 -25z m-3303 9 c-3 -3 -12
-4 -19 -1 -8 3 -5 6 6 6 11 1 17 -2 13 -5z m141 -59 c31 -40 52 -75 43 -75 -5
0 -18 12 -28 26 -10 14 -30 41 -45 59 -16 18 -28 39 -28 46 0 12 16 -3 58 -56z
m-158 28 c-8 -3 -24 -10 -35 -16 -18 -9 -19 -9 -6 6 7 10 23 17 35 16 14 0 16
-2 6 -6z m304 -9 c9 -3 16 -10 16 -14 0 -17 -64 -29 -79 -14 -7 6 21 34 34 34
8 0 20 -3 29 -6z m2486 -38 c0 -8 -4 -17 -8 -20 -13 -8 -35 11 -28 23 10 16
36 14 36 -3z m-2967 -32 c-4 -12 -8 -13 -14 -3 -9 15 -2 32 11 24 5 -3 6 -13
3 -21z m3156 -31 c-1 -46 -3 -52 -8 -28 -4 17 -6 37 -5 45 1 8 3 21 3 28 1 6
3 12 6 12 3 0 4 -26 4 -57z m-2824 13 c15 -14 45 -32 68 -40 23 -8 34 -15 24
-15 -28 -1 -80 24 -106 53 -31 33 -21 34 14 2z m305 -26 c0 -5 -4 -10 -10 -10
-5 0 -10 5 -10 10 0 6 5 10 10 10 6 0 10 -4 10 -10z m2225 -20 c-3 -5 -54 -46
-113 -90 -102 -77 -314 -194 -392 -216 -38 -12 -72 -7 -50 6 7 4 11 12 9 17
-2 6 -35 0 -74 -13 l-70 -23 60 4 c48 3 54 2 30 -5 -16 -5 -51 -11 -76 -13
-25 -2 -50 -6 -55 -10 -6 -3 -27 -4 -47 -2 -26 2 -37 -1 -37 -10 0 -18 -39
-45 -65 -44 -19 0 -19 0 1 9 12 4 32 22 46 39 21 28 40 36 154 65 72 19 172
48 223 65 106 36 309 133 396 190 67 44 69 45 60 31z m-2175 -10 c0 -5 -2 -10
-4 -10 -3 0 -8 5 -11 10 -3 6 -1 10 4 10 6 0 11 -4 11 -10z m2070 6 c0 -3 -4
-8 -10 -11 -5 -3 -10 -1 -10 4 0 6 5 11 10 11 6 0 10 -2 10 -4z m475 -6 c3 -5
3 -15 -1 -21 -6 -11 -23 6 -24 24 0 10 18 9 25 -3z m-345 -20 c-12 -22 -136
-131 -241 -212 -60 -45 -84 -57 -126 -63 -29 -4 -55 -10 -58 -15 -3 -4 12 -4
33 1 54 13 56 12 30 -20 -20 -25 -31 -30 -73 -31 l-50 -2 51 -16 c47 -15 51
-19 43 -39 l-8 -22 -47 26 c-27 15 -66 28 -88 29 -22 1 -42 7 -44 13 -2 6 1
12 7 12 6 1 19 2 29 4 28 3 52 17 46 26 -3 5 1 9 9 9 23 0 111 42 124 59 8 11
12 12 13 3 0 -29 168 85 295 202 33 30 61 55 63 56 1 0 -2 -9 -8 -20z m267
-32 c-3 -8 -6 -5 -6 6 -1 11 2 17 5 13 3 -3 4 -12 1 -19z m-2752 -8 c3 -5 1
-10 -4 -10 -6 0 -11 5 -11 10 0 6 2 10 4 10 3 0 8 -4 11 -10z m2210 -10 c3 -5
1 -10 -4 -10 -6 0 -11 5 -11 10 0 6 2 10 4 10 3 0 8 -4 11 -10z m-55 -30 c0
-5 -2 -10 -4 -10 -3 0 -8 5 -11 10 -3 6 -1 10 4 10 6 0 11 -4 11 -10z m597
-22 c-3 -8 -6 -5 -6 6 -1 11 2 17 5 13 3 -3 4 -12 1 -19z m-657 -2 c0 -3 -4
-8 -10 -11 -5 -3 -10 -1 -10 4 0 6 5 11 10 11 6 0 10 -2 10 -4z m-1650 -72 c0
-2 -9 0 -20 6 -11 6 -20 13 -20 16 0 2 9 0 20 -6 11 -6 20 -13 20 -16z m1370
-14 c0 -5 -4 -10 -10 -10 -5 0 -10 5 -10 10 0 6 5 10 10 10 6 0 10 -4 10 -10z
m-70 -20 c0 -5 -2 -10 -4 -10 -3 0 -8 5 -11 10 -3 6 -1 10 4 10 6 0 11 -4 11
-10z m-609 -57 c1 -21 3 -30 6 -20 7 27 33 1 33 -33 0 -40 10 -60 29 -60 12 0
13 -2 3 -9 -13 -8 -92 -4 -101 5 -2 2 10 4 27 4 36 0 39 7 17 36 -11 15 -15
16 -16 4 0 -8 -7 7 -14 34 -13 48 -11 76 6 76 5 0 10 -17 10 -37z m110 20 c13
-16 12 -17 -3 -4 -17 13 -29 12 -73 -4 l-20 -8 20 16 c26 22 59 21 76 0z m195
2 c10 -8 14 -15 7 -15 -6 0 -15 5 -18 10 -10 16 -47 12 -68 -7 -19 -17 -20
-17 -8 5 14 26 57 30 87 7z m-1446 1 c0 -2 -7 -9 -15 -16 -13 -11 -14 -10 -9
4 5 14 24 23 24 12z m615 -54 c-3 -3 -11 0 -18 7 -9 10 -8 11 6 5 10 -3 15 -9
12 -12z m-542 -9 c-7 -2 -21 -2 -30 0 -10 3 -4 5 12 5 17 0 24 -2 18 -5z m157
-3 c0 -5 -9 -10 -21 -10 -11 0 -17 5 -14 10 3 6 13 10 21 10 8 0 14 -4 14 -10z
m603 3 c-7 -2 -19 -2 -25 0 -7 3 -2 5 12 5 14 0 19 -2 13 -5z m-138 -13 c13
-6 15 -9 5 -9 -8 0 -22 4 -30 9 -18 12 -2 12 25 0z m1009 -29 c14 -5 16 -10 7
-15 -6 -4 -9 -16 -6 -26 5 -16 2 -19 -24 -15 -45 5 -51 12 -38 40 12 25 27 29
61 16z m-664 -26 c37 -13 39 -14 11 -10 -18 3 -40 5 -47 5 -8 0 -14 5 -14 10
0 12 -4 13 50 -5z m707 -17 c-3 -8 -6 -5 -6 6 -1 11 2 17 5 13 3 -3 4 -12 1
-19z m34 -9 c6 -13 7 -19 1 -15 -6 3 -12 1 -14 -6 -3 -7 -11 -9 -24 -3 -17 7
-17 8 -1 12 9 3 17 11 17 19 0 20 7 17 21 -7z m-541 -20 c0 -5 -13 -7 -30 -5
-16 2 -30 -1 -30 -5 0 -5 -4 -9 -8 -9 -5 0 -9 6 -9 14 0 10 12 15 39 14 21 0
38 -4 38 -9z m189 -175 c-14 -18 -24 -11 -15 11 3 9 11 13 16 10 8 -5 7 -11
-1 -21z m-39 1 c0 -8 -4 -15 -10 -15 -5 0 -10 7 -10 15 0 8 5 15 10 15 6 0 10
-7 10 -15z m280 -15 c16 -12 19 -18 9 -17 -17 3 -57 37 -42 37 4 0 19 -9 33
-20z"/>
<path d="M2175 5300 c-3 -5 -1 -10 4 -10 6 0 11 5 11 10 0 6 -2 10 -4 10 -3 0
-8 -4 -11 -10z"/>
<path d="M2229 5287 c5 -5 19 -7 32 -5 20 3 19 5 -9 9 -20 3 -29 2 -23 -4z"/>
<path d="M2015 4840 c-3 -5 -1 -10 4 -10 6 0 11 5 11 10 0 6 -2 10 -4 10 -3 0
-8 -4 -11 -10z"/>
<path d="M1660 4715 c-7 -8 -8 -15 -2 -15 5 0 15 7 22 15 7 8 8 15 2 15 -5 0
-15 -7 -22 -15z"/>
<path d="M1120 2001 c0 -6 4 -13 10 -16 6 -3 7 1 4 9 -7 18 -14 21 -14 7z"/>
<path d="M1776 2001 c-4 -7 -6 -13 -5 -14 2 -1 15 -11 29 -22 25 -20 25 -20 9
0 -9 11 -18 27 -21 35 -3 11 -6 11 -12 1z"/>
<path d="M2210 816 c0 -2 7 -7 16 -10 8 -3 12 -2 9 4 -6 10 -25 14 -25 6z"/>
<path d="M3825 860 c-44 -22 -113 -49 -152 -61 -42 -13 -73 -28 -73 -36 0 -17
7 -17 71 6 68 23 186 82 219 110 33 27 28 26 -65 -19z"/>
<path d="M3336 645 c-3 -8 -1 -15 4 -15 6 0 10 7 10 15 0 8 -2 15 -4 15 -2 0
-6 -7 -10 -15z"/>
<path d="M1992 5496 c-46 -19 -86 -37 -90 -40 -8 -8 -11 -56 -3 -56 3 0 42 14
88 31 77 29 83 34 83 59 0 16 6 31 13 33 6 3 8 6 2 6 -5 0 -47 -15 -93 -33z
m-52 -56 c0 -5 -4 -10 -10 -10 -5 0 -10 5 -10 10 0 6 5 10 10 10 6 0 10 -4 10
-10z"/>
<path d="M1741 5380 c-63 -32 -119 -56 -125 -53 -5 3 -6 1 -3 -4 8 -13 -17
-35 -73 -61 -25 -12 -65 -40 -90 -62 -42 -38 -43 -41 -27 -57 16 -16 16 -16
13 3 -2 12 0 27 5 35 5 8 9 10 9 4 0 -5 4 -4 9 3 7 11 9 10 14 -3 4 -9 3 -14
-3 -10 -11 7 -26 -22 -17 -31 9 -10 147 90 147 106 0 10 3 11 8 3 5 -8 26 0
68 25 34 21 93 52 133 71 63 31 71 38 71 63 0 16 -5 28 -12 28 -7 -1 -65 -27
-127 -60z"/>
<path d="M1754 5296 c-29 -22 -13 -26 21 -5 17 11 23 19 14 19 -8 0 -24 -6
-35 -14z"/>
<path d="M4525 5282 c-17 -12 -14 -53 3 -50 16 3 24 29 13 46 -4 6 -11 8 -16
4z"/>
<path d="M3708 5253 c6 -2 18 -2 25 0 6 3 1 5 -13 5 -14 0 -19 -2 -12 -5z"/>
<path d="M4623 5205 c0 -8 6 -16 14 -19 10 -4 10 -12 3 -32 -6 -15 -8 -29 -5
-32 3 -3 5 0 5 6 0 7 6 12 14 12 18 0 9 44 -13 64 -15 14 -18 14 -18 1z"/>
<path d="M4509 5163 c-3 -43 4 -60 39 -88 20 -16 65 -53 99 -82 l62 -52 9 27
c9 22 11 24 12 7 1 -11 2 -27 1 -36 -1 -8 23 -38 52 -67 30 -28 58 -59 62 -69
8 -17 8 -17 12 2 10 46 13 50 31 31 12 -14 14 -20 5 -23 -25 -9 -13 -39 38
-98 109 -127 196 -251 326 -463 14 -22 16 -23 33 -7 19 17 18 19 -11 76 -41
83 -168 268 -252 369 -70 85 -331 350 -345 350 -4 0 -30 22 -59 48 -29 26 -66
57 -83 70 -27 22 -30 22 -31 5z"/>
<path d="M3820 5126 c0 -30 4 -36 40 -50 51 -20 50 -20 50 7 0 32 -10 43 -52
60 l-38 16 0 -33z"/>
<path d="M1375 5125 c0 -14 5 -25 12 -25 13 0 11 26 -3 40 -5 5 -9 0 -9 -15z"/>
<path d="M1330 5100 c0 -5 -7 -10 -15 -10 -9 0 -37 -19 -63 -43 -26 -24 -61
-55 -79 -69 -24 -19 -29 -28 -20 -37 9 -9 8 -11 -5 -6 -21 8 -56 -24 -155
-140 -131 -155 -216 -265 -209 -273 2 -2 14 2 26 8 17 9 24 9 30 0 4 -7 19 6
42 37 70 98 191 234 301 338 61 59 111 111 110 116 -2 5 4 6 12 3 10 -4 15 0
15 11 0 10 4 13 13 9 7 -5 7 -1 -3 12 -8 10 -11 16 -6 12 11 -10 35 14 29 29
-6 15 -23 17 -23 3z"/>
<path d="M1566 5052 c-3 -6 -1 -14 5 -17 15 -10 25 3 12 16 -7 7 -13 7 -17 1z"/>
<path d="M1342 5018 c-16 -16 -15 -28 3 -28 8 0 15 2 15 4 0 2 3 11 6 20 7 19
-7 21 -24 4z"/>
<path d="M1535 5000 c3 -5 8 -10 11 -10 2 0 4 5 4 10 0 6 -5 10 -11 10 -5 0
-7 -4 -4 -10z"/>
<path d="M1287 4973 c-9 -11 -17 -25 -17 -31 0 -14 71 -72 82 -66 17 10 7 51
-20 83 -27 32 -28 32 -45 14z"/>
<path d="M1810 4970 c-8 -5 -11 -12 -7 -16 4 -4 13 -2 19 4 15 15 7 24 -12 12z"/>
<path d="M1566 4885 c-23 -42 -17 -54 11 -22 11 14 17 30 14 40 -5 14 -10 10
-25 -18z"/>
<path d="M1740 4860 c-8 -5 -9 -13 -4 -23 7 -12 12 -13 25 -4 13 10 14 15 4
24 -7 6 -18 7 -25 3z"/>
<path d="M4487 4594 c4 -11 2 -15 -4 -11 -6 4 -10 -5 -9 -21 1 -15 5 -26 11
-25 13 3 17 60 5 68 -6 4 -7 -1 -3 -11z"/>
<path d="M4570 4555 c12 -14 50 -27 50 -16 0 4 -14 12 -31 18 -25 10 -29 9
-19 -2z"/>
<path d="M810 4501 c0 -16 -4 -21 -15 -17 -16 6 -21 -9 -6 -18 15 -10 41 28
31 44 -8 12 -10 10 -10 -9z"/>
<path d="M746 4465 c-3 -8 -1 -15 3 -15 5 0 11 7 15 15 3 8 1 15 -3 15 -5 0
-11 -7 -15 -15z"/>
<path d="M736 4433 c5 -5 12 -12 16 -18 4 -6 8 -2 8 8 0 9 -7 17 -17 17 -9 0
-12 -3 -7 -7z"/>
<path d="M665 4340 c-3 -5 -4 -10 -1 -10 3 0 -4 -11 -16 -25 -11 -13 -25 -22
-31 -18 -5 3 -7 0 -5 -8 3 -8 -11 -45 -30 -84 -127 -254 -236 -584 -200 -606
8 -5 9 -12 2 -21 -14 -17 -17 -75 -5 -83 6 -3 15 11 20 32 5 21 17 66 25 99
40 157 153 445 227 580 39 72 48 101 27 88 -7 -4 -8 -3 -4 4 4 7 2 12 -4 12
-7 0 -5 7 4 16 9 8 16 20 16 25 0 12 -17 12 -25 -1z"/>
<path d="M5318 4134 c18 -35 25 -41 45 -37 23 4 24 7 14 34 -8 20 -17 27 -32
25 -11 -2 -26 2 -34 8 -8 6 -6 -5 7 -30z"/>
<path d="M5384 4037 c-7 -17 -4 -36 13 -82 43 -111 94 -277 122 -399 20 -84
33 -120 41 -118 10 2 11 0 2 -10 -16 -20 -11 -58 10 -69 13 -7 18 -4 23 11 4
12 1 28 -6 36 -10 12 -9 13 6 8 14 -6 16 -3 12 12 -3 10 -9 37 -13 59 -4 22
-9 44 -12 50 -3 5 -7 25 -9 45 -4 36 -60 237 -71 255 -4 6 -7 16 -8 22 -1 7
-15 46 -31 85 -23 61 -28 68 -31 46 -2 -16 -8 -28 -13 -28 -10 0 -12 12 -9 47
1 12 -2 29 -7 37 -7 13 -10 12 -19 -7z"/>
<path d="M3980 3496 c0 -2 8 -10 18 -17 15 -13 16 -12 3 4 -13 16 -21 21 -21
13z"/>
<path d="M355 3470 c-3 -5 -1 -10 4 -10 6 0 11 5 11 10 0 6 -2 10 -4 10 -3 0
-8 -4 -11 -10z"/>
<path d="M362 3443 c-10 -4 -10 -8 -2 -19 13 -15 4 -38 -11 -28 -5 3 -7 8 -5
12 2 4 -2 12 -9 19 -15 13 -18 4 -31 -81 -5 -34 -3 -47 4 -42 6 3 15 -1 20
-10 20 -36 36 2 47 114 2 23 3 42 2 41 -1 0 -8 -3 -15 -6z m-25 -75 c-3 -8 -6
-5 -6 6 -1 11 2 17 5 13 3 -3 4 -12 1 -19z"/>
<path d="M5565 3273 c12 -116 15 -126 31 -112 8 6 17 9 21 5 4 -3 -3 -13 -15
-22 -18 -12 -22 -24 -21 -62 2 -72 12 -106 32 -110 15 -3 17 1 11 23 -4 18 -2
30 6 35 11 7 11 32 2 135 -9 106 -14 131 -31 146 -35 33 -43 24 -36 -38z"/>
<path d="M294 3258 c-4 -13 -7 -126 -7 -253 1 -208 11 -358 31 -440 6 -27 7
-24 13 25 4 40 6 25 6 -55 0 -84 5 -128 22 -188 12 -43 20 -85 17 -92 -3 -8 0
-15 6 -17 6 -2 23 -44 38 -93 35 -115 81 -238 109 -294 22 -42 23 -42 40 -24
10 10 14 20 10 21 -5 2 -9 14 -9 26 0 13 -3 26 -7 30 -4 3 -8 14 -10 24 -2 9
-21 67 -43 127 -22 61 -56 171 -75 245 -20 74 -39 142 -43 150 -5 8 -9 33 -10
55 -2 22 -7 67 -12 100 -28 179 -35 542 -13 620 5 18 5 18 -11 2 -23 -23 -35
-22 -29 3 3 11 10 17 16 13 7 -4 8 0 4 11 -4 10 -7 20 -7 22 0 2 -6 4 -14 4
-8 0 -18 -10 -22 -22z m186 -1132 c0 -3 -4 -8 -10 -11 -5 -3 -10 -1 -10 4 0 6
5 11 10 11 6 0 10 -2 10 -4z"/>
<path d="M221 3054 c0 -11 3 -14 6 -6 3 7 2 16 -1 19 -3 4 -6 -2 -5 -13z"/>
<path d="M5030 2880 c0 -11 1 -21 3 -23 1 -2 -6 -11 -15 -21 -19 -18 -25 -56
-9 -56 5 0 11 9 14 20 4 14 14 20 33 20 26 0 27 1 10 19 -10 11 -15 25 -10 32
5 8 3 10 -6 4 -10 -6 -12 -4 -7 8 3 10 2 17 -3 17 -6 0 -10 -9 -10 -20z"/>
<path d="M5617 2813 c-12 -3 -16 -11 -13 -21 5 -14 3 -13 -8 2 -15 18 -15 18
-14 0 1 -60 -51 -367 -82 -480 -10 -39 -21 -81 -24 -95 -9 -49 -99 -278 -157
-399 -59 -123 -192 -354 -210 -366 -16 -10 -10 -24 11 -24 11 0 20 -4 20 -10
0 -13 -27 -13 -35 0 -4 6 -11 8 -16 4 -6 -4 -3 -14 8 -27 18 -20 17 -20 -4
-15 -16 4 -23 2 -23 -9 0 -8 -3 -12 -7 -10 -5 3 -15 -5 -24 -17 -14 -18 -15
-27 -5 -51 l12 -28 39 54 c106 147 156 224 216 329 36 63 69 124 73 135 l8 20
8 -20 c6 -15 8 -11 8 17 -1 20 5 51 12 68 11 26 11 33 0 40 -16 10 -4 31 14
24 14 -5 43 65 66 156 7 25 15 52 19 60 4 8 7 27 6 42 -1 15 2 25 6 22 9 -5
54 137 64 204 4 28 3 42 -4 42 -6 0 -11 11 -11 25 0 14 -5 25 -11 25 -5 0 -7
5 -4 10 12 20 25 9 25 -20 0 -16 4 -30 9 -30 9 0 26 84 35 180 12 115 16 170
14 169 -2 -1 -11 -3 -21 -6z"/>
<path d="M5274 2778 c-1 -42 13 -51 40 -26 l21 19 -25 19 c-33 26 -35 25 -36
-12z"/>
<path d="M5084 2778 c-4 -7 -8 -25 -8 -41 -1 -16 -9 -35 -20 -43 -19 -13 -18
-14 13 -14 18 0 39 -7 47 -15 24 -24 85 12 83 50 -1 17 -2 16 -9 -5 -5 -15 -8
-18 -9 -8 -1 11 -7 15 -20 11 -20 -5 -64 34 -58 52 4 12 27 14 42 4 6 -3 18
-6 27 -6 14 0 15 3 7 14 -14 16 -85 17 -95 1z"/>
<path d="M5230 2694 c0 -9 11 -14 31 -14 35 0 31 15 -6 22 -17 4 -25 1 -25 -8z"/>
<path d="M5046 2530 c-3 -16 -9 -43 -12 -60 -4 -23 -2 -30 10 -30 9 0 16 8 16
20 0 11 5 20 11 20 8 0 8 4 0 14 -16 20 -4 45 20 39 11 -3 19 0 19 6 0 7 -4 9
-10 6 -5 -3 -10 -1 -10 4 0 6 -9 11 -19 11 -14 0 -21 -9 -25 -30z"/>
<path d="M5070 2509 c0 -4 7 -10 16 -13 8 -3 12 -10 9 -16 -3 -5 1 -10 9 -10
10 0 16 9 16 24 0 19 -5 24 -25 22 -14 0 -25 -4 -25 -7z"/>
<path d="M5132 2456 c-6 -11 -18 -66 -28 -121 -26 -154 -27 -165 -15 -165 6 0
11 -5 11 -11 0 -6 6 -17 14 -25 13 -12 15 -11 21 6 12 38 13 274 1 289 -8 11
-8 13 1 8 6 -4 14 -1 16 5 4 10 8 9 16 -2 12 -18 24 -9 16 13 -10 25 -42 27
-53 3z"/>
<path d="M5095 2450 c3 -5 8 -10 11 -10 2 0 4 5 4 10 0 6 -5 10 -11 10 -5 0
-7 -4 -4 -10z"/>
<path d="M5175 2410 c3 -5 8 -10 11 -10 2 0 4 5 4 10 0 6 -5 10 -11 10 -5 0
-7 -4 -4 -10z"/>
<path d="M5006 2347 c-9 -34 -18 -73 -20 -87 -1 -14 -6 -32 -11 -39 -5 -10 -4
-12 3 -7 7 4 12 1 12 -10 0 -13 3 -14 15 -4 13 10 15 9 15 -9 0 -13 -4 -19
-11 -16 -6 4 -9 -4 -7 -22 3 -30 18 -54 31 -46 4 2 7 2 7 0 0 -11 -54 -134
-99 -226 -28 -57 -51 -110 -51 -116 0 -7 -10 -15 -22 -18 -18 -5 -19 -8 -8
-21 8 -11 9 -16 1 -16 -19 0 -12 -25 13 -47 23 -20 25 -20 39 -5 25 29 99 154
124 211 14 30 35 68 49 84 28 33 31 57 8 57 -11 0 -14 6 -8 23 4 12 10 24 13
27 4 3 8 19 9 36 3 29 0 32 -31 38 -24 5 -37 13 -41 28 -3 12 -3 24 -1 27 3 2
5 -1 5 -7 0 -7 5 -12 10 -12 6 0 10 12 10 28 0 15 7 49 15 76 24 78 20 100
-19 118 l-33 16 -17 -61z m64 -2 c0 -9 -6 -12 -16 -8 -13 5 -13 7 -2 14 17 11
18 11 18 -6z m-10 -54 c0 -6 -4 -13 -10 -16 -5 -3 -10 1 -10 9 0 9 5 16 10 16
6 0 10 -4 10 -9z m-27 -378 c-12 -35 -135 -254 -140 -250 -2 3 6 22 20 44 13
21 45 80 71 131 45 86 64 115 49 75z"/>
<path d="M4621 2274 c0 -11 3 -14 6 -6 3 7 2 16 -1 19 -3 4 -6 -2 -5 -13z"/>
<path d="M4948 2168 c-9 -25 2 -39 18 -23 9 8 12 19 9 25 -8 14 -22 13 -27 -2z"/>
<path d="M531 2114 c0 -11 3 -14 6 -6 3 7 2 16 -1 19 -3 4 -6 -2 -5 -13z"/>
<path d="M4940 2111 c0 -5 11 -8 24 -7 13 0 22 4 19 9 -6 10 -43 9 -43 -2z"/>
<path d="M4885 2018 c-22 -46 -48 -95 -58 -110 -12 -19 -14 -28 -6 -28 8 0 4
-9 -8 -22 -42 -47 -45 -63 -15 -92 36 -33 46 -33 37 1 -5 23 -4 25 9 14 12
-10 21 -1 55 61 36 66 39 74 25 89 -14 16 -14 18 4 28 11 6 22 8 25 4 4 -3 12
6 18 21 10 21 9 29 -3 43 -9 10 -22 30 -30 46 l-14 27 -39 -82z m8 -131 c7 3
8 2 4 -2 -14 -16 -36 -14 -29 3 4 10 7 12 10 4 2 -7 9 -9 15 -5z"/>
<path d="M4998 2075 c-6 -30 -2 -32 12 -6 6 11 6 22 1 25 -5 3 -11 -5 -13 -19z"/>
<path d="M5125 1901 c-43 -27 -108 -97 -101 -109 3 -6 1 -14 -5 -18 -8 -4 -9
-3 -5 4 4 7 6 12 4 12 -2 0 -28 -36 -57 -80 l-53 -79 51 -68 c46 -62 69 -105
39 -75 -24 24 -28 11 -9 -25 42 -81 43 -81 83 -26 76 106 228 374 228 402 0
17 -86 62 -106 55 -14 -4 -15 -3 -6 4 11 7 10 10 -3 16 -24 9 -27 8 -60 -13z
m-5 -25 c0 -2 -8 -10 -17 -17 -16 -13 -17 -12 -4 4 13 16 21 21 21 13z m-40
-29 c0 -2 -10 -12 -22 -23 l-23 -19 19 23 c18 21 26 27 26 19z m-100 -177 c0
-5 -4 -10 -10 -10 -5 0 -10 5 -10 10 0 6 5 10 10 10 6 0 10 -4 10 -10z"/>
<path d="M593 1799 c-17 -17 -4 -44 28 -56 16 -6 29 -16 29 -23 0 -6 -4 -9 -8
-6 -4 2 -14 1 -22 -4 -12 -7 -12 -10 3 -16 9 -3 15 -10 12 -14 -7 -11 26 -80
37 -80 4 0 8 -7 8 -15 0 -9 10 -20 23 -25 13 -5 16 -9 7 -10 -12 0 -12 -2 2
-11 9 -5 15 -16 12 -24 -4 -8 1 -17 9 -21 8 -3 18 -16 21 -29 9 -35 216 -303
216 -279 0 5 8 -3 18 -16 33 -45 207 -224 267 -275 131 -111 308 -235 436
-304 86 -47 99 -50 99 -17 0 31 -16 42 -28 20 -6 -11 -11 -13 -16 -5 -4 6 -2
11 3 11 28 0 4 21 -71 65 -324 187 -649 495 -880 830 -62 91 -178 289 -178
304 0 14 -13 14 -27 0z m117 -214 c0 -8 -2 -15 -4 -15 -2 0 -6 7 -10 15 -3 8
-1 15 4 15 6 0 10 -7 10 -15z m309 -408 c0 -21 -1 -21 -9 -2 -12 28 -12 37 0
30 6 -3 10 -16 9 -28z"/>
<path d="M850 1200 c0 -5 5 -10 10 -10 6 0 10 5 10 10 0 6 -4 10 -10 10 -5 0
-10 -4 -10 -10z"/>
<path d="M923 1170 c-1 -11 2 -22 8 -25 5 -4 6 2 2 11 -4 12 -3 15 5 10 8 -5
10 -2 6 8 -8 22 -19 20 -21 -4z"/>
<path d="M4740 1033 c0 -6 -41 -46 -90 -88 -73 -62 -89 -80 -79 -91 6 -8 9
-21 5 -29 -4 -12 -2 -14 9 -8 24 14 195 163 195 171 -1 13 -40 57 -40 45z"/>
<path d="M4260 890 c0 -5 5 -10 11 -10 5 0 7 5 4 10 -3 6 -8 10 -11 10 -2 0
-4 -4 -4 -10z"/>
<path d="M4439 787 c-6 -18 -5 -37 2 -37 4 0 5 -7 2 -17 -5 -11 -3 -14 6 -9 7
5 11 17 8 27 -3 10 0 20 6 22 6 2 3 6 -6 10 -9 3 -17 5 -18 4z"/>
<path d="M4200 706 c0 -9 5 -16 10 -16 6 0 10 4 10 9 0 6 -4 13 -10 16 -5 3
-10 -1 -10 -9z"/>
<path d="M4288 683 c-34 -21 -58 -43 -57 -52 1 -12 2 -12 6 2 3 11 11 16 19
13 7 -3 17 0 20 6 5 8 10 5 15 -8 7 -17 8 -17 8 -1 1 9 7 17 14 17 7 0 20 9
30 20 9 11 12 20 6 20 -5 0 -7 5 -4 10 9 14 6 13 -57 -27z"/>
<path d="M4090 579 c-585 -280 -1263 -335 -1870 -153 -91 27 -340 127 -377
152 -13 8 -24 10 -24 6 -7 -51 -4 -56 56 -88 55 -29 183 -79 310 -121 28 -9
95 -27 150 -40 422 -101 876 -98 1295 10 248 64 535 185 546 232 11 42 -1 42
-86 2z"/>
<path d="M4153 445 c-3 -9 -3 -18 -1 -21 3 -3 8 4 11 16 6 23 -1 27 -10 5z"/>
</g>
</svg>
